<?xml version="1.0" encoding="UTF-8"?>
<svg version="1.1" xmlns="http://www.w3.org/2000/svg" width="500" height="500">
<path d="M0 0 C165 0 330 0 500 0 C500 165 500 330 500 500 C335 500 170 500 0 500 C0 335 0 170 0 0 Z " fill="#FDFEFE" transform="translate(0,0)"/>
<path d="M0 0 C7.43947217 5.21339755 13.87899084 12.53551378 15.51953125 21.765625 C16.18218176 30.99927964 15.69348162 38.38045685 11.51953125 46.765625 C11.51953125 47.095625 11.51953125 47.425625 11.51953125 47.765625 C12.17953125 47.765625 12.83953125 47.765625 13.51953125 47.765625 C14.50953125 46.775625 14.50953125 46.775625 15.51953125 45.765625 C15.18953125 49.395625 14.85953125 53.025625 14.51953125 56.765625 C15.94265625 55.981875 17.36578125 55.198125 18.83203125 54.390625 C19.63253906 53.94976562 20.43304688 53.50890625 21.2578125 53.0546875 C23.05481068 52.03049165 24.79853833 50.91295362 26.51953125 49.765625 C25.14215552 53.78297089 23.18927 56.49304201 20.51953125 59.765625 C20.02453125 61.250625 20.02453125 61.250625 19.51953125 62.765625 C17.99609375 64.046875 17.99609375 64.046875 16.14453125 65.265625 C13.65159934 66.92050746 11.62628151 68.647203 9.51953125 70.765625 C5.40004211 73.0019191 1.11753466 73.6314282 -3.48046875 72.765625 C-6.35426631 71.36054851 -8.91770896 69.67406314 -11.48046875 67.765625 C-11.81046875 68.095625 -12.14046875 68.425625 -12.48046875 68.765625 C-10.17046875 70.415625 -7.86046875 72.065625 -5.48046875 73.765625 C-5.81046875 74.425625 -6.14046875 75.085625 -6.48046875 75.765625 C-9.27966746 74.58134862 -11.26097136 73.10609215 -13.48046875 71.078125 C-16.1111132 68.51276547 -16.1111132 68.51276547 -18.44140625 68.9296875 C-20.79892913 69.89618156 -22.24526923 71.09494351 -24.10546875 72.828125 C-27.27105699 75.765625 -27.27105699 75.765625 -29.48046875 75.765625 C-27.98949217 71.9704119 -25.72346026 70.15519769 -22.48046875 67.765625 C-25.23293794 68.81803969 -27.73503204 69.91270601 -30.29296875 71.390625 C-34.48528083 73.19907335 -36.92556236 73.19942561 -41.48046875 72.765625 C-45.21584218 71.06772799 -47.68870807 68.73187072 -50.48046875 65.765625 C-51.38796875 64.858125 -52.29546875 63.950625 -53.23046875 63.015625 C-53.97296875 62.273125 -54.71546875 61.530625 -55.48046875 60.765625 C-54.98546875 60.270625 -54.98546875 60.270625 -54.48046875 59.765625 C-55.42921875 59.04375 -56.37796875 58.321875 -57.35546875 57.578125 C-60.73671337 54.76174713 -61.92209057 52.15867434 -62.91796875 47.890625 C-63.4450783 45.56031963 -63.4450783 45.56031963 -65.04296875 42.890625 C-67.53005326 37.31906803 -67.07525678 30.72122978 -66.48046875 24.765625 C-65.82046875 24.105625 -65.16046875 23.445625 -64.48046875 22.765625 C-64.15046875 24.415625 -63.82046875 26.065625 -63.48046875 27.765625 C-63.58488281 26.88261719 -63.68929687 25.99960938 -63.796875 25.08984375 C-64.2898204 17.8052061 -63.95696061 13.33017114 -59.29296875 7.515625 C-56.24183366 4.09511534 -53.83856683 2.18487404 -49.48046875 0.765625 C-48.55234375 0.394375 -47.62421875 0.023125 -46.66796875 -0.359375 C-45.94609375 -0.648125 -45.22421875 -0.936875 -44.48046875 -1.234375 C-44.93421875 -0.55375 -45.38796875 0.126875 -45.85546875 0.828125 C-47.65098988 4.07387474 -48.53585102 7.18957215 -49.48046875 10.765625 C-49.81046875 11.425625 -50.14046875 12.085625 -50.48046875 12.765625 C-49.82046875 12.105625 -49.16046875 11.445625 -48.48046875 10.765625 C-47.49046875 10.765625 -46.50046875 10.765625 -45.48046875 10.765625 C-45.22394531 10.1778125 -44.96742188 9.59 -44.703125 8.984375 C-41.56911631 3.29710045 -35.25847301 -1.19981535 -29.28515625 -3.56640625 C-19.06197366 -6.00117536 -9.12807507 -5.34448171 0 0 Z " fill="#CBEAF7" transform="translate(267.48046875,117.234375)"/>
<path d="M0 0 C8.42144996 4.36667776 15.38040869 9.96501989 19.375 18.75 C19.86483008 21.18001639 20.11555095 23.4907572 20.234375 25.96484375 C20.18247558 27.7739399 20.18247558 27.7739399 21.375 28.75 C22.19280742 36.27382823 19.53061411 43.51657883 15.375 49.75 C14.715 49.75 14.055 49.75 13.375 49.75 C13.313125 50.306875 13.25125 50.86375 13.1875 51.4375 C12.0269231 54.74068042 9.97286554 56.46894733 7.375 58.75 C6.715 58.75 6.055 58.75 5.375 58.75 C5.375 59.41 5.375 60.07 5.375 60.75 C-0.71764074 63.39714735 -5.6368783 64.21947317 -12.25 64.125 C-13.47976562 64.14240234 -13.47976562 64.14240234 -14.734375 64.16015625 C-19.78790186 64.13578233 -23.20428687 63.45393133 -27.625 60.75 C-27.625 59.43 -27.625 58.11 -27.625 56.75 C-28.285 56.75 -28.945 56.75 -29.625 56.75 C-29.955 57.41 -30.285 58.07 -30.625 58.75 C-31.7975131 57.79882866 -32.96287015 56.83882991 -34.125 55.875 C-34.7746875 55.34132813 -35.424375 54.80765625 -36.09375 54.2578125 C-36.5990625 53.76023437 -37.104375 53.26265625 -37.625 52.75 C-37.625 52.09 -37.625 51.43 -37.625 50.75 C-38.285 50.75 -38.945 50.75 -39.625 50.75 C-41.77805957 46.89243493 -43.01753254 44.19870215 -42.625 39.75 C-43.285 39.75 -43.945 39.75 -44.625 39.75 C-45.91949495 35.86651516 -45.75703312 32.84302664 -45.625 28.75 C-45.295 28.42 -44.965 28.09 -44.625 27.75 C-44.36755836 25.7548273 -44.11300166 23.75887323 -43.90625 21.7578125 C-43.625 19.75 -43.625 19.75 -42.625 16.75 C-41.965 16.75 -41.305 16.75 -40.625 16.75 C-40.5425 16.193125 -40.46 15.63625 -40.375 15.0625 C-39.38604459 12.01322081 -37.77742534 10.09810037 -35.625 7.75 C-34.965 7.75 -34.305 7.75 -33.625 7.75 C-33.295 6.76 -32.965 5.77 -32.625 4.75 C-23.29517274 -2.18410308 -11.01124481 -3.77588663 0 0 Z " fill="#FBF9F8" transform="translate(213.625,284.25)"/>
<path d="M0 0 C10.79197268 -0.93994601 18.48957198 0.98278941 27.12890625 7.640625 C33.38295621 13.4219066 37.62658455 20.79666996 38.23828125 29.3203125 C38.47065901 41.23273034 36.54255138 49.21697392 28.140625 58.0234375 C19.6188315 65.89210084 11.15210996 67.2126513 -0.14453125 67.265625 C-3 67 -3 67 -6 65 C-6.72316406 64.53722656 -7.44632813 64.07445312 -8.19140625 63.59765625 C-8.97386719 63.09105469 -9.75632813 62.58445313 -10.5625 62.0625 C-11.34753906 61.55847656 -12.13257813 61.05445313 -12.94140625 60.53515625 C-15 59 -15 59 -17 56 C-16.34 55.34 -15.68 54.68 -15 54 C-12.0625368 54.38842489 -9.8080068 55.56244246 -7.25 57 C-3.12783701 59.13856576 0.38907332 59.67064809 5 60 C5 58.02 5 56.04 5 54 C6.65 54 8.3 54 10 54 C10.33 55.65 10.66 57.3 11 59 C15.54170996 57.09115308 15.54170996 57.09115308 20 55 C18.78955868 50.39257135 18.78955868 50.39257135 17 46 C15.89140625 46.02320313 14.7828125 46.04640625 13.640625 46.0703125 C12.17709008 46.08907577 10.71354786 46.10727537 9.25 46.125 C8.52039063 46.14175781 7.79078125 46.15851563 7.0390625 46.17578125 C3.1955376 46.21072239 0.25393228 46.17499684 -3 44 C-3 43.01 -3 42.02 -3 41 C-3.99 41 -4.98 41 -6 41 C-6.33 39.35 -6.66 37.7 -7 36 C-5.02 36 -3.04 36 -1 36 C-1.66 35.67 -2.32 35.34 -3 35 C-3 34.34 -3 33.68 -3 33 C-1.515 32.505 -1.515 32.505 0 32 C0.73323796 29.98491642 0.73323796 29.98491642 1 28 C0.13375 28.2475 0.13375 28.2475 -0.75 28.5 C-3 29 -3 29 -7 29 C-8.60279613 31.61508842 -9.15622322 33.31809133 -8.46484375 36.3359375 C-7.70194637 38.58559768 -6.89207691 40.79858439 -6 43 C-7.32 43.99 -8.64 44.98 -10 46 C-10.66 43.36 -11.32 40.72 -12 38 C-14.97 38.495 -14.97 38.495 -18 39 C-18 39.99 -18 40.98 -18 42 C-18.66 42 -19.32 42 -20 42 C-22.08213257 34.60250459 -21.6441977 27.8508954 -18.203125 20.96875 C-16.48961746 18.16482858 -14.49280206 16.12800176 -12 14 C-11.21625 13.2575 -10.4325 12.515 -9.625 11.75 C-6.41197253 9.60798168 -3.81099212 9.29890134 0 9 C0 8.34 0 7.68 0 7 C1.32 7 2.64 7 4 7 C4 5.02 4 3.04 4 1 C2.68 0.67 1.36 0.34 0 0 Z " fill="#28ACDF" transform="translate(245,113)"/>
<path d="M0 0 C5.95238939 4.84496811 7.36691161 9.92426388 8.6875 17.1875 C4.0675 17.1875 -0.5525 17.1875 -5.3125 17.1875 C-5.9003125 15.5478125 -5.9003125 15.5478125 -6.5 13.875 C-7.63151371 11.28718624 -8.3306643 10.17141162 -10.5 8.25 C-15.28222698 6.44338092 -19.40119777 6.38050573 -24.125 8.375 C-27.74532653 11.37469913 -29.37161053 14.65450596 -30.3125 19.1875 C-31.66998963 33.94782726 -31.66998963 33.94782726 -26.3125 47.1875 C-23.88524789 49.57101783 -22.64353768 50.15238994 -19.21875 50.515625 C-17.53265625 50.47695313 -17.53265625 50.47695313 -15.8125 50.4375 C-14.6884375 50.42203125 -13.564375 50.4065625 -12.40625 50.390625 C-9.12809887 50.26780546 -9.12809887 50.26780546 -5.3125 49.1875 C-5.3125 45.2275 -5.3125 41.2675 -5.3125 37.1875 C-9.2725 37.1875 -13.2325 37.1875 -17.3125 37.1875 C-17.3125 33.8875 -17.3125 30.5875 -17.3125 27.1875 C-8.7325 27.1875 -0.1525 27.1875 8.6875 27.1875 C8.87636411 31.58533573 9.01517027 35.97508636 9.125 40.375 C9.18365234 41.62087891 9.24230469 42.86675781 9.30273438 44.15039062 C9.4714691 53.14154122 9.4714691 53.14154122 7.25195312 56.1027832 C5.44441309 57.42955836 3.75775804 58.33802746 1.6875 59.1875 C0.93726563 59.56519531 0.18703125 59.94289063 -0.5859375 60.33203125 C-9.95062878 63.30854093 -21.85649033 64.28202173 -31 60.1875 C-38.41548555 55.72307503 -42.74111175 48.27525589 -44.87109375 40.0234375 C-46.72279342 28.12667676 -46.54254659 15.07225533 -39.625 4.875 C-29.44159608 -7.67014098 -13.31712091 -7.28672653 0 0 Z " fill="#08A0DB" transform="translate(153.3125,285.8125)"/>
<path d="M0 0 C1.79244141 0.01740234 1.79244141 0.01740234 3.62109375 0.03515625 C5.41740234 0.04869141 5.41740234 0.04869141 7.25 0.0625 C8.17683594 0.07410156 9.10367188 0.08570313 10.05859375 0.09765625 C10.41308594 1.07476562 10.76757812 2.051875 11.1328125 3.05859375 C15.79779755 15.84505826 20.65327182 28.55685805 25.52612305 41.26513672 C25.8021788 41.9851738 26.07823456 42.70521088 26.36265564 43.44706726 C26.87993529 44.79584427 27.39753681 46.14449792 27.9155426 47.49299622 C28.63209649 49.36037218 29.34535393 51.22901197 30.05859375 53.09765625 C30.33803833 53.79323639 30.61748291 54.48881653 30.90539551 55.20547485 C31.18057007 55.90312958 31.45574463 56.6007843 31.73925781 57.31958008 C31.99161194 57.94753983 32.24396606 58.57549957 32.50396729 59.2224884 C33.05859375 61.09765625 33.05859375 61.09765625 33.05859375 65.09765625 C28.43859375 65.09765625 23.81859375 65.09765625 19.05859375 65.09765625 C15.05859375 54.34765625 15.05859375 54.34765625 15.05859375 52.09765625 C7.13859375 52.09765625 -0.78140625 52.09765625 -8.94140625 52.09765625 C-9.93140625 55.72765625 -10.92140625 59.35765625 -11.94140625 63.09765625 C-12.43640625 64.08765625 -12.43640625 64.08765625 -12.94140625 65.09765625 C-17.56140625 65.09765625 -22.18140625 65.09765625 -26.94140625 65.09765625 C-26.0282039 60.53164452 -24.69594399 56.42946818 -23.06640625 52.09765625 C-22.61817505 50.89302734 -22.61817505 50.89302734 -22.16088867 49.6640625 C-18.76496203 40.56544641 -15.30856402 31.48907824 -11.85009766 22.4140625 C-9.40853541 16.00155958 -7.01143619 9.57982947 -4.72729492 3.109375 C-3.51884883 0.01599326 -3.49701954 0.11610291 0 0 Z " fill="#069FDA" transform="translate(257.94140625,281.90234375)"/>
<path d="M0 0 C3.21557693 2.45206094 4.84359549 4.81389289 6.1875 8.6875 C6.1875 10.6675 6.1875 12.6475 6.1875 14.6875 C1.8975 14.6875 -2.3925 14.6875 -6.8125 14.6875 C-7.225 13.73875 -7.6375 12.79 -8.0625 11.8125 C-9.91586687 8.5029163 -10.42923095 7.97143843 -13.8125 6.6875 C-17.89075168 6.13463842 -21.58622455 6.14913517 -25.375 7.8125 C-27.06310967 9.69885003 -27.06310967 9.69885003 -27.25 12.6875 C-26.75789013 16.06196768 -26.36618169 16.60458087 -23.8125 18.6875 C-21.74429882 19.70061925 -21.74429882 19.70061925 -19.42578125 20.484375 C-18.1409082 20.96390625 -18.1409082 20.96390625 -16.83007812 21.453125 C-15.04894517 22.10127735 -13.26512678 22.74210454 -11.47851562 23.375 C-4.73925709 25.91165893 1.62863372 29.31951891 5.3840332 35.72998047 C7.17776076 40.10011342 6.68848271 45.07351112 6.1875 49.6875 C3.6320421 54.98770897 -0.01377315 58.55332206 -5.4921875 60.7734375 C-9.22630093 61.80141696 -12.71727807 62.0717024 -16.5625 62.0625 C-17.61594604 62.06008301 -17.61594604 62.06008301 -18.69067383 62.05761719 C-26.01050699 61.88611771 -31.4256707 59.67542155 -37.6875 56 C-41.72972668 51.60110626 -43.8125 46.63916807 -43.8125 40.6875 C-39.1925 40.6875 -34.5725 40.6875 -29.8125 40.6875 C-29.420625 41.780625 -29.02875 42.87375 -28.625 44 C-27.49348629 46.58781376 -26.7943357 47.70358838 -24.625 49.625 C-20.93819855 51.01779166 -17.6668056 51.3561807 -13.8125 50.6875 C-10.25750588 49.26344383 -10.25750588 49.26344383 -7.8125 46.6875 C-7.06234805 43.64441709 -7.06234805 43.64441709 -7.8125 40.6875 C-9.8393129 38.20172095 -11.72865926 37.12777571 -14.7265625 36.07421875 C-15.48372559 35.79908447 -16.24088867 35.5239502 -17.02099609 35.24047852 C-18.21716553 34.81206665 -18.21716553 34.81206665 -19.4375 34.375 C-36.24265673 28.04762662 -36.24265673 28.04762662 -40.375 20.8125 C-42.69003184 15.21161652 -42.64155736 10.77816639 -40.375 5.0625 C-37.35643122 0.34531008 -32.18707626 -3.15510401 -26.921875 -4.9609375 C-16.92767561 -6.6266374 -8.44663181 -5.44377518 0 0 Z " fill="#069FDA" transform="translate(384.8125,286.3125)"/>
<path d="M0 0 C4.62 0 9.24 0 14 0 C14 17.82 14 35.64 14 54 C23.24 54 32.48 54 42 54 C42 57.63 42 61.26 42 65 C28.14 65 14.28 65 0 65 C0 43.55 0 22.1 0 0 Z " fill="#0AA1DB" transform="translate(296,282)"/>
<path d="M0 0 C3.3 0 6.6 0 10 0 C10.84080019 2.41429769 11.67281402 4.83103993 12.5 7.25 C12.73847656 7.93191406 12.97695313 8.61382812 13.22265625 9.31640625 C14.39421287 12.76413003 15 15.31702904 15 19 C15.66 19 16.32 19 17 19 C17.0825 18.0925 17.165 17.185 17.25 16.25 C18.0268887 10.62625347 20.11803229 5.33078295 22 0 C25.3 0 28.6 0 32 0 C32 9.9 32 19.8 32 30 C29.69 30 27.38 30 25 30 C24.67 24.72 24.34 19.44 24 14 C22.35 19.28 20.7 24.56 19 30 C17.35 30 15.7 30 14 30 C13.36878864 28.64871743 12.74540165 27.29377953 12.125 25.9375 C11.60292969 24.80634766 11.60292969 24.80634766 11.0703125 23.65234375 C9.80685196 20.52135942 8.92754069 17.24639241 8 14 C7.67 19.28 7.34 24.56 7 30 C4.69 30 2.38 30 0 30 C0 20.1 0 10.2 0 0 Z " fill="#0FA3DC" transform="translate(281,242)"/>
<path d="M0 0 C5.61 0 11.22 0 17 0 C18.19138787 8.3397151 17.09351043 12.69093802 12.23046875 19.46484375 C6.23250329 26.57485803 -0.51453187 31.881282 -10 33 C-21.99561644 33.66958904 -21.99561644 33.66958904 -26 31 C-26.72316406 30.53722656 -27.44632813 30.07445312 -28.19140625 29.59765625 C-28.97386719 29.09105469 -29.75632813 28.58445313 -30.5625 28.0625 C-31.34753906 27.55847656 -32.13257813 27.05445313 -32.94140625 26.53515625 C-35 25 -35 25 -37 22 C-36.34 21.34 -35.68 20.68 -35 20 C-32.0625368 20.38842489 -29.8080068 21.56244246 -27.25 23 C-23.12783701 25.13856576 -19.61092668 25.67064809 -15 26 C-15 24.02 -15 22.04 -15 20 C-13.35 20 -11.7 20 -10 20 C-9.67 21.65 -9.34 23.3 -9 25 C-4.45829004 23.09115308 -4.45829004 23.09115308 0 21 C-0.309375 20.030625 -0.61875 19.06125 -0.9375 18.0625 C-2.17967097 13.76335509 -2.61684853 9.44657366 -3 5 C-1.35 4.67 0.3 4.34 2 4 C2 3.34 2 2.68 2 2 C1.34 2 0.68 2 0 2 C0 1.34 0 0.68 0 0 Z " fill="#3FB5E3" transform="translate(265,147)"/>
<path d="M0 0 C3.71015281 1.78636987 5.5278978 3.32332018 7.875 6.6875 C9.87949393 12.58962102 9.90088053 17.67508298 7.25 23.375 C5.66628388 26.42930967 3.95833555 28.21645474 1 30 C-3.03462028 30.79893471 -7.19603657 30.92775262 -10.9140625 29.015625 C-14.74863158 25.95552554 -16.75714337 23.02757044 -17.3359375 18.1953125 C-17.41514399 11.96968252 -17.43109653 7.80035457 -13 3 C-12.443125 2.38125 -11.88625 1.7625 -11.3125 1.125 C-7.59035564 -0.68577293 -4.05082636 -0.62590893 0 0 Z " fill="#10A3DC" transform="translate(244,242)"/>
<path d="M0 0 C16.03846154 0 16.03846154 0 21 3 C22.50934217 6.01868434 22.17510672 8.67297229 22 12 C21.01 13.485 21.01 13.485 20 15 C20.495 15.4021875 20.99 15.804375 21.5 16.21875 C23 18 23 18 23.25 20.15625 C23.1675 20.9296875 23.085 21.703125 23 22.5 C22.9071875 23.66015625 22.9071875 23.66015625 22.8125 24.84375 C22 27 22 27 19.98828125 28.76953125 C15.95509791 30.4302538 12.49414368 30.32719498 8.1875 30.1875 C4.1346875 30.0946875 4.1346875 30.0946875 0 30 C0 20.1 0 10.2 0 0 Z " fill="#0AA1DB" transform="translate(318,201)"/>
<path d="M0 0 C14.53125 0 14.53125 0 20.3125 5 C23.36321841 8.61566626 23.28079214 12.20494915 23.21484375 16.71875 C22.79344991 21.19318643 20.97468456 24.01277355 17.875 27.15234375 C14.24776492 29.48343368 11.33647102 29.4548427 7.1875 29.25 C4.815625 29.1675 2.44375 29.085 0 29 C0 19.43 0 9.86 0 0 Z " fill="#079FDB" transform="translate(110,242)"/>
<path d="M0 0 C0 4.33333333 0 8.66666667 0 13 C0.66 13.598125 1.32 14.19625 2 14.8125 C4 17 4 17 4.25 19.75 C4.1675 20.4925 4.085 21.235 4 22 C3.34 22 2.68 22 2 22 C2.185625 22.639375 2.37125 23.27875 2.5625 23.9375 C2.706875 24.618125 2.85125 25.29875 3 26 C2.67 26.33 2.34 26.66 2 27 C3.98 26.67 5.96 26.34 8 26 C8 26.66 8 27.32 8 28 C10.475 28.99 10.475 28.99 13 30 C9.63007987 31.01259619 6.51102519 31.16555609 3 31.1875 C1.96875 31.20167969 0.9375 31.21585938 -0.125 31.23046875 C-2.96545203 31.00276947 -4.59107948 30.46504061 -7 29 C-7 28.01 -7 27.02 -7 26 C-7.99 26 -8.98 26 -10 26 C-10.33 24.35 -10.66 22.7 -11 21 C-9.02 21 -7.04 21 -5 21 C-5.66 20.67 -6.32 20.34 -7 20 C-7 19.34 -7 18.68 -7 18 C-6.01 17.67 -5.02 17.34 -4 17 C-3.26676204 14.98491642 -3.26676204 14.98491642 -3 13 C-3.5775 13.165 -4.155 13.33 -4.75 13.5 C-7 14 -7 14 -11 14 C-12.60279613 16.61508842 -13.15622322 18.31809133 -12.46484375 21.3359375 C-11.70194637 23.58559768 -10.89207691 25.79858439 -10 28 C-11.32 28.99 -12.64 29.98 -14 31 C-14.66 28.36 -15.32 25.72 -16 23 C-17.98 23.33 -19.96 23.66 -22 24 C-22 24.99 -22 25.98 -22 27 C-22.66 27 -23.32 27 -24 27 C-26.1376426 19.40528606 -25.47947271 12.8833508 -22.0703125 5.8125 C-21 4 -21 4 -19 2 C-16.9375 2.1875 -16.9375 2.1875 -15 3 C-14.67 3.99 -14.34 4.98 -14 6 C-13.01 6 -12.02 6 -11 6 C-11 5.01 -11 4.02 -11 3 C-7.06312043 0.80267187 -4.48703763 -0.18345639 0 0 Z " fill="#3AB3E2" transform="translate(249,128)"/>
<path d="M0 0 C2.64 0 5.28 0 8 0 C10.97 5.28 13.94 10.56 17 16 C17.33 10.72 17.66 5.44 18 0 C20.31 0 22.62 0 25 0 C25 9.9 25 19.8 25 30 C18 30 18 30 16.37915039 28.62304688 C16.03875732 27.99462891 15.69836426 27.36621094 15.34765625 26.71875 C14.96416016 26.04199219 14.58066406 25.36523438 14.18554688 24.66796875 C13.81494141 23.95253906 13.44433594 23.23710937 13.0625 22.5 C12.66482422 21.78457031 12.26714844 21.06914062 11.85742188 20.33203125 C10.88113425 18.56765603 9.93732433 16.78537967 9 15 C8.67 19.95 8.34 24.9 8 30 C5.36 30 2.72 30 0 30 C0 20.1 0 10.2 0 0 Z " fill="#0DA2DB" transform="translate(258,201)"/>
<path d="M0 0 C0.33 0.66 0.66 1.32 1 2 C3.31 2 5.62 2 8 2 C7.67 3.65 7.34 5.3 7 7 C6.01 7 5.02 7 4 7 C4 7.66 4 8.32 4 9 C4.99 9.33 5.98 9.66 7 10 C6 11 6 11 3.4375 11.0625 C2.633125 11.041875 1.82875 11.02125 1 11 C1 12.32 1 13.64 1 15 C1.99 15 2.98 15 4 15 C4 15.99 4 16.98 4 18 C11.02804699 18.85373239 17.92278069 19.12109311 25 19 C25.70074844 22.153368 26 24.72724974 26 28 C26.66 28.33 27.32 28.66 28 29 C22.5 33 22.5 33 18 33 C17.67 31.35 17.34 29.7 17 28 C15.35 28 13.7 28 12 28 C12 29.65 12 31.3 12 33 C13.65 33 15.3 33 17 33 C17 33.33 17 33.66 17 34 C15.35 34 13.7 34 12 34 C12 35.98 12 37.96 12 40 C11.67 40 11.34 40 11 40 C11 38.02 11 36.04 11 34 C9.35 34 7.7 34 6 34 C6 33.67 6 33.34 6 33 C7.65 33 9.3 33 11 33 C11 31.35 11 29.7 11 28 C10.05125 27.87625 9.1025 27.7525 8.125 27.625 C3.37745198 26.95234946 -1.30640153 25.97271759 -6 25 C-6 25.66 -6 26.32 -6 27 C-8 27 -8 27 -10.3125 24.75 C-11.199375 23.8425 -12.08625 22.935 -13 22 C-13.928125 21.278125 -14.85625 20.55625 -15.8125 19.8125 C-16.534375 19.214375 -17.25625 18.61625 -18 18 C-18 17.34 -18 16.68 -18 16 C-16.68 16 -15.36 16 -14 16 C-14.23396484 15.11248047 -14.23396484 15.11248047 -14.47265625 14.20703125 C-16.4059754 6.35852373 -16.4059754 6.35852373 -15 2 C-14.67 2 -14.34 2 -14 2 C-13.67 6.62 -13.34 11.24 -13 16 C-12.34 16 -11.68 16 -11 16 C-11 15.01 -11 14.02 -11 13 C-9.02 12.67 -7.04 12.34 -5 12 C-4.01 14.31 -3.02 16.62 -2 19 C-1.34 18.01 -0.68 17.02 0 16 C-0.33 15.4225 -0.66 14.845 -1 14.25 C-2 12 -2 12 -2 8 C-2.66 7.67 -3.32 7.34 -4 7 C-3.34 7 -2.68 7 -2 7 C-1.855625 6.401875 -1.71125 5.80375 -1.5625 5.1875 C-1.1127561 3.43849596 -0.57107659 1.71322977 0 0 Z " fill="#08A0DB" transform="translate(238,139)"/>
<path d="M0 0 C7 0 7 0 8.62084961 1.37695312 C8.96124268 2.00537109 9.30163574 2.63378906 9.65234375 3.28125 C10.03583984 3.95800781 10.41933594 4.63476562 10.81445312 5.33203125 C11.37036133 6.40517578 11.37036133 6.40517578 11.9375 7.5 C12.33517578 8.21542969 12.73285156 8.93085938 13.14257812 9.66796875 C14.11886575 11.43234397 15.06267567 13.21462033 16 15 C16.33 10.05 16.66 5.1 17 0 C19.31 0 21.62 0 24 0 C24 9.57 24 19.14 24 29 C21.69 29 19.38 29 17 29 C15.09166203 26.79328997 13.93831483 25.14528838 12.625 22.625 C12.28339844 22.02171875 11.94179688 21.4184375 11.58984375 20.796875 C10.33286994 18.56115083 9.14697094 16.29394187 8 14 C7.67 19.28 7.34 24.56 7 30 C4.69 30 2.38 30 0 30 C0 20.1 0 10.2 0 0 Z " fill="#0DA1DB" transform="translate(338,242)"/>
<path d="M0 0 C15 0 15 0 21 3 C23.48076864 5.48076864 23.35091557 6.44218209 23.4375 9.875 C23.35557825 14.60598085 23.35557825 14.60598085 20.6875 17.5625 C16.26515036 19.92794283 12.96486743 20.09367674 8 20 C8 23.3 8 26.6 8 30 C5.36 30 2.72 30 0 30 C0 20.1 0 10.2 0 0 Z " fill="#17A6DD" transform="translate(255,242)"/>
<path d="M0 0 C1.134375 0.020625 2.26875 0.04125 3.4375 0.0625 C6.28734104 7.10160737 9.13535494 14.14304655 11.8125 21.25 C12.12960938 22.08917969 12.44671875 22.92835938 12.7734375 23.79296875 C13.4375 26.0625 13.4375 26.0625 13.4375 30.0625 C11.1275 30.0625 8.8175 30.0625 6.4375 30.0625 C5.9425 27.5875 5.9425 27.5875 5.4375 25.0625 C1.8075 25.0625 -1.8225 25.0625 -5.5625 25.0625 C-5.8925 26.7125 -6.2225 28.3625 -6.5625 30.0625 C-9.2025 30.0625 -11.8425 30.0625 -14.5625 30.0625 C-12.66479365 23.25308311 -10.37259268 16.6322033 -7.9375 10 C-7.62417725 9.14237061 -7.31085449 8.28474121 -6.98803711 7.40112305 C-6.69034424 6.59715088 -6.39265137 5.79317871 -6.0859375 4.96484375 C-5.81700684 4.23773193 -5.54807617 3.51062012 -5.27099609 2.76147461 C-3.96356749 -0.37374098 -3.76812504 0.06610746 0 0 Z " fill="#0EA2DC" transform="translate(228.5625,200.9375)"/>
<path d="M0 0 C2.31 0 4.62 0 7 0 C10.19466223 6.54481687 12.88826917 13.20159267 15.3125 20.0625 C15.57885254 20.81265381 15.84520508 21.56280762 16.11962891 22.33569336 C18 27.73913662 18 27.73913662 18 30 C15.36 30 12.72 30 10 30 C9.67 28.68 9.34 27.36 9 26 C5.37 25.67 1.74 25.34 -2 25 C-2.33 26.65 -2.66 28.3 -3 30 C-5.31 30 -7.62 30 -10 30 C-8.7331079 22.77871505 -6.23695592 16.28702745 -3.4375 9.55078125 C-2.16024631 6.3958258 -1.03551295 3.24095639 0 0 Z " fill="#0DA2DB" transform="translate(297,201)"/>
<path d="M0 0 C2.64 0 5.28 0 8 0 C8.02505615 0.69150146 8.0501123 1.38300293 8.07592773 2.09545898 C8.19152161 5.20967866 8.31441242 8.32356789 8.4375 11.4375 C8.47681641 12.52611328 8.51613281 13.61472656 8.55664062 14.73632812 C8.61948242 16.28803711 8.61948242 16.28803711 8.68359375 17.87109375 C8.72025146 18.82943115 8.75690918 19.78776855 8.79467773 20.77514648 C8.75834424 22.97138925 8.75834424 22.97138925 10 24 C12.5 24.16666667 12.5 24.16666667 15 24 C16.68300669 22.31699331 16.22809077 20.17991273 16.31640625 17.87109375 C16.35830078 16.83662109 16.40019531 15.80214844 16.44335938 14.73632812 C16.48267578 13.64771484 16.52199219 12.55910156 16.5625 11.4375 C16.60568359 10.34501953 16.64886719 9.25253906 16.69335938 8.12695312 C16.79982068 5.41810436 16.90183516 2.70916008 17 0 C19.31 0 21.62 0 24 0 C24.11643304 3.89558088 24.18732909 7.79071258 24.25 11.6875 C24.30027344 13.34168945 24.30027344 13.34168945 24.3515625 15.02929688 C24.45073033 23.23543471 24.45073033 23.23543471 22.109375 27.20703125 C18.71264199 30.09425431 16.53364672 30.21009867 12.125 30.3125 C11.07570312 30.34988281 10.02640625 30.38726562 8.9453125 30.42578125 C5.27934547 29.8958205 4.25136279 28.88235012 2 26 C0.07964312 22.82320303 -0.23824346 20.48893735 -0.1953125 16.796875 C-0.18886719 15.8171875 -0.18242187 14.8375 -0.17578125 13.828125 C-0.15902344 12.81234375 -0.14226562 11.7965625 -0.125 10.75 C-0.11597656 9.71875 -0.10695312 8.6875 -0.09765625 7.625 C-0.07412011 5.08309713 -0.04124023 2.5416672 0 0 Z " fill="#0EA2DC" transform="translate(136,201)"/>
<path d="M0 0 C6.93 0 13.86 0 21 0 C21 1.98 21 3.96 21 6 C16.71 6 12.42 6 8 6 C8 7.98 8 9.96 8 12 C11.63 12 15.26 12 19 12 C19 13.65 19 15.3 19 17 C15.37 17 11.74 17 8 17 C8 19.64 8 22.28 8 25 C12.29 25 16.58 25 21 25 C21 26.65 21 28.3 21 30 C14.07 30 7.14 30 0 30 C0 20.1 0 10.2 0 0 Z " fill="#13A4DC" transform="translate(368,201)"/>
<path d="M0 0 C5.09090909 2.09090909 5.09090909 2.09090909 7 4 C7.04063832 5.66617115 7.042721 7.33388095 7 9 C4.69 9 2.38 9 0 9 C0 8.01 0 7.02 0 6 C-2.31 6.33 -4.62 6.66 -7 7 C-7.33 7.99 -7.66 8.98 -8 10 C-7.41992188 10.15855469 -6.83984375 10.31710938 -6.2421875 10.48046875 C-0.74976888 12.12094362 3.06307326 13.76780376 7 18 C8.05725796 21.2378525 8.32665857 23.02002428 7.25 26.25 C6 28 6 28 3 30 C0.0390625 30.3359375 0.0390625 30.3359375 -3.375 30.375 C-5.05722656 30.41753906 -5.05722656 30.41753906 -6.7734375 30.4609375 C-10.65786442 29.90601937 -12.27538804 28.77940306 -15 26 C-15.8125 22.75 -15.8125 22.75 -16 20 C-13.69 20 -11.38 20 -9 20 C-8.34 21.32 -7.68 22.64 -7 24 C-5.02 24 -3.04 24 -1 24 C-1 22.68 -1 21.36 -1 20 C-1.59167969 19.76925781 -2.18335938 19.53851563 -2.79296875 19.30078125 C-7.75001106 17.2548894 -11.72767177 15.43347695 -15 11 C-15.6875 8 -15.6875 8 -15 5 C-10.61792847 -0.16859719 -6.62531495 -1.12393736 0 0 Z " fill="#0EA2DC" transform="translate(180,201)"/>
<path d="M0 0 C2.5 1.875 2.5 1.875 3.375 5.0625 C3.41625 5.990625 3.4575 6.91875 3.5 7.875 C1.19 7.875 -1.12 7.875 -3.5 7.875 C-3.83 7.215 -4.16 6.555 -4.5 5.875 C-6.48 5.875 -8.46 5.875 -10.5 5.875 C-10.5 6.865 -10.5 7.855 -10.5 8.875 C-9.50419922 9.20371094 -9.50419922 9.20371094 -8.48828125 9.5390625 C-2.56275175 11.66706288 1.28496682 13.33183935 4.5 18.875 C4.57252784 22.50139189 4.05011042 24.16476355 1.8359375 27.0234375 C-1.22101051 29.44650331 -3.07257535 29.41074497 -6.9375 29.375 C-8.04996094 29.3853125 -9.16242188 29.395625 -10.30859375 29.40625 C-14.13102824 28.76995736 -15.79953813 27.61488468 -18.5 24.875 C-19.3125 21.625 -19.3125 21.625 -19.5 18.875 C-17.19 18.875 -14.88 18.875 -12.5 18.875 C-11.84 20.195 -11.18 21.515 -10.5 22.875 C-8.52 22.875 -6.54 22.875 -4.5 22.875 C-4.5 21.555 -4.5 20.235 -4.5 18.875 C-5.17546875 18.64425781 -5.8509375 18.41351563 -6.546875 18.17578125 C-15.95340029 14.73669036 -15.95340029 14.73669036 -18.5 9.875 C-19.125 6.875 -19.125 6.875 -18.5 3.875 C-13.17220709 -2.40906343 -7.55979541 -2.42993424 0 0 Z " fill="#0EA2DC" transform="translate(128.5,202.125)"/>
<path d="M0 0 C2.97361628 1.78152067 5.42653612 3.85307225 7 7 C7.93762008 17.40604586 7.93762008 17.40604586 5.125 22.1875 C1.60315029 25.19143064 -1.12788125 25.53428302 -5.66796875 25.4609375 C-9.24793982 24.75333853 -10.85574336 23.09555996 -12.96484375 20.19921875 C-14.87259999 16.14613662 -14.85197588 12.34579296 -14 8 C-10.63260726 1.4974485 -7.38627494 -0.8763377 0 0 Z " fill="#0DA1DB" transform="translate(285,364)"/>
<path d="M0 0 C4.15177657 1.79281261 6.27158115 3.81540699 8 8 C8.73065523 12.82054245 8.48117593 16.08742496 6.1875 20.4375 C3.20391676 23.93255465 1.74970982 24.92744744 -2.875 25.375 C-6.10759179 25.2976083 -7.04740345 24.97075106 -9.9375 23.1875 C-13.71475825 19.181317 -13.27098801 14.89470309 -13.22265625 9.66796875 C-12.94897844 6.38863637 -12.16243694 4.48279797 -10 2 C-6.27420911 -0.48386059 -4.41288598 -0.3804212 0 0 Z " fill="#10A3DC" transform="translate(183,364)"/>
<path d="M0 0 C6.6 0 13.2 0 20 0 C20 1.98 20 3.96 20 6 C15.71 6 11.42 6 7 6 C7 7.98 7 9.96 7 12 C10.63 12 14.26 12 18 12 C18 13.65 18 15.3 18 17 C14.37 17 10.74 17 7 17 C7 19.31 7 21.62 7 24 C11.29 24 15.58 24 20 24 C20 25.98 20 27.96 20 30 C13.4 30 6.8 30 0 30 C0 20.1 0 10.2 0 0 Z " fill="#15A5DD" transform="translate(186,242)"/>
<path d="M0 0 C13.2 0 13.2 0 17 3 C17.97636076 6.18944514 18.51413749 7.97172501 17 11 C16.34 11 15.68 11 15 11 C15 11.66 15 12.32 15 13 C15.66 13 16.32 13 17 13 C18.42041821 15.84083641 18.31452272 17.85477278 18 21 C16.43359375 23.1796875 16.43359375 23.1796875 14 25 C9.2805118 25.53387876 4.76525513 25.17649093 0 25 C0 16.75 0 8.5 0 0 Z " fill="#0CA1DB" transform="translate(371,364)"/>
<path d="M0 0 C2.64 0 5.28 0 8 0 C9.58528554 3.7150822 10.6763188 7.3884096 11.625 11.3125 C11.88539063 12.38113281 12.14578125 13.44976562 12.4140625 14.55078125 C12.60742188 15.35902344 12.80078125 16.16726563 13 17 C15.24808254 13.62787619 16.05160443 10.7125039 17.125 6.8125 C17.30675781 6.15830078 17.48851562 5.50410156 17.67578125 4.83007812 C18.12199044 3.22137657 18.56164215 1.61085869 19 0 C21.64 0 24.28 0 27 0 C25.60152532 6.88642833 23.64985223 13.41826697 21.375 20.0625 C21.05015625 21.02349609 20.7253125 21.98449219 20.390625 22.97460938 C19.59788808 25.31784644 18.80095424 27.65956176 18 30 C15.03 30 12.06 30 9 30 C7.68300898 25.93894205 6.37219603 21.87591589 5.0625 17.8125 C4.68931641 16.66201172 4.31613281 15.51152344 3.93164062 14.32617188 C3.57392578 13.21435547 3.21621094 12.10253906 2.84765625 10.95703125 C2.51773682 9.93585205 2.18781738 8.91467285 1.84790039 7.86254883 C1.07429352 5.25081817 0.48409734 2.67867192 0 0 Z " fill="#11A3DC" transform="translate(157,242)"/>
<path d="M0 0 C0.66 0.33 1.32 0.66 2 1 C1.54625 1.515625 1.0925 2.03125 0.625 2.5625 C-1.38451732 5.57677598 -2.09525307 8.51026185 -3 12 C-3.33 12.66 -3.66 13.32 -4 14 C-2.68 13.34 -1.36 12.68 0 12 C-0.45375 12.86625 -0.9075 13.7325 -1.375 14.625 C-3.899846 20.40462378 -4.26837206 26.79407361 -5 33 C-5.33 33 -5.66 33 -6 33 C-6.33 31.35 -6.66 29.7 -7 28 C-7.65043719 29.72744016 -8.29514844 31.4570369 -8.9375 33.1875 C-9.29714844 34.15042969 -9.65679687 35.11335938 -10.02734375 36.10546875 C-10.91156562 38.7368278 -11.52568586 41.26894908 -12 44 C-16.9548398 39.58081855 -19.68025748 35.38927066 -20.3125 28.6875 C-20 26 -20 26 -18 24 C-17.67 25.65 -17.34 27.3 -17 29 C-17.10441406 28.11699219 -17.20882812 27.23398438 -17.31640625 26.32421875 C-17.80935165 19.0395811 -17.47649186 14.56454614 -12.8125 8.75 C-9.73851308 5.30387205 -7.34240328 3.50669312 -3 2 C-2.01 1.34 -1.02 0.68 0 0 Z " fill="#ECF7FC" transform="translate(221,116)"/>
<path d="M0 0 C6.6 0 13.2 0 20 0 C20 1.98 20 3.96 20 6 C15.71 6 11.42 6 7 6 C7 7.98 7 9.96 7 12 C10.3 12 13.6 12 17 12 C17 13.65 17 15.3 17 17 C13.7 17 10.4 17 7 17 C7 19.31 7 21.62 7 24 C10.96 24 14.92 24 19 24 C19 25.65 19 27.3 19 29 C12.73 29 6.46 29 0 29 C0 19.43 0 9.86 0 0 Z " fill="#0CA1DB" transform="translate(316,242)"/>
<path d="M0 0 C6.27 0 12.54 0 19 0 C19 1.98 19 3.96 19 6 C15.04 6 11.08 6 7 6 C7 7.98 7 9.96 7 12 C10.3 12 13.6 12 17 12 C17 13.65 17 15.3 17 17 C13.7 17 10.4 17 7 17 C7 19.31 7 21.62 7 24 C10.96 24 14.92 24 19 24 C19 25.65 19 27.3 19 29 C12.73 29 6.46 29 0 29 C0 19.43 0 9.86 0 0 Z " fill="#0BA1DB" transform="translate(136,242)"/>
<path d="M0 0 C1.98 0 3.96 0 6 0 C7.81896996 2.21439822 9.05036585 4.02082091 10.375 6.5 C10.72949219 7.12003906 11.08398438 7.74007813 11.44921875 8.37890625 C12.31961604 9.90798257 13.16255124 11.45263275 14 13 C14.33 8.71 14.66 4.42 15 0 C16.98 0 18.96 0 21 0 C21 8.25 21 16.5 21 25 C19.02 25 17.04 25 15 25 C13.18103004 22.78560178 11.94963415 20.97917909 10.625 18.5 C10.27050781 17.87996094 9.91601562 17.25992187 9.55078125 16.62109375 C8.68038396 15.09201743 7.83744876 13.54736725 7 12 C6.67 16.29 6.34 20.58 6 25 C4.02 25 2.04 25 0 25 C0 16.75 0 8.5 0 0 Z " fill="#1FA8DE" transform="translate(121,364)"/>
<path d="M0 0 C6.27733654 4.87160094 11.58747124 12.04523276 13 20 C13.06688591 21.91561254 13.08531719 23.83335592 13.0625 25.75 C13.05347656 26.73484375 13.04445313 27.7196875 13.03515625 28.734375 C13.02355469 29.48203125 13.01195312 30.2296875 13 31 C12.67 30.01 12.34 29.02 12 28 C8.04 28 4.08 28 0 28 C-0.33 28.66 -0.66 29.32 -1 30 C-1 29.34 -1 28.68 -1 28 C-2.32 28 -3.64 28 -5 28 C-5 28.66 -5 29.32 -5 30 C-4.34 30 -3.68 30 -3 30 C-3 30.66 -3 31.32 -3 32 C-5.475 32.495 -5.475 32.495 -8 33 C-7.814375 33.61875 -7.62875 34.2375 -7.4375 34.875 C-7 37 -7 37 -8 39 C-12.75 38.25 -12.75 38.25 -15 36 C-17.60280568 36.32041397 -17.60280568 36.32041397 -20 37 C-19.505 34.03 -19.505 34.03 -19 31 C-18.34 31 -17.68 31 -17 31 C-17.94933899 27.64566891 -18.89748835 24.30753495 -20 21 C-13.25 20 -13.25 20 -11 20 C-11.33 19.01 -11.66 18.02 -12 17 C-10 17 -10 17 -7.4375 19.5 C-6.633125 20.325 -5.82875 21.15 -5 22 C-4.67 22 -4.34 22 -4 22 C-4 23.65 -4 25.3 -4 27 C-3.01 27 -2.02 27 -1 27 C-0.67 26.34 -0.34 25.68 0 25 C0 25.66 0 26.32 0 27 C1.65 27 3.3 27 5 27 C4.79375 26.05125 4.5875 25.1025 4.375 24.125 C4.25125 23.09375 4.1275 22.0625 4 21 C4.66 20.34 5.32 19.68 6 19 C6 21.31 6 23.62 6 26 C7.65 26 9.3 26 11 26 C9.48616831 19.01573108 7.95346348 12.99835839 4 7 C0.9254644 7.7763932 0.9254644 7.7763932 -1 10 C-1 9.34 -1 8.68 -1 8 C-1.66 8 -2.32 8 -3 8 C-2 6 -2 6 0 5 C-0.67285501 2.01838059 -0.67285501 2.01838059 -2.49609375 0.90234375 C-7.86919774 -1.76799163 -13.08258644 -3.07843559 -19 -4 C-19 -3.34 -19 -2.68 -19 -2 C-17.35 -2 -15.7 -2 -14 -2 C-14.99 -1.67 -15.98 -1.34 -17 -1 C-17 -0.34 -17 0.32 -17 1 C-17.99 1 -18.98 1 -20 1 C-20 -0.98 -20 -2.96 -20 -5 C-12.79317589 -7.49466988 -6.0776671 -3.72377698 0 0 Z " fill="#0BA1DB" transform="translate(270,119)"/>
<path d="M0 0 C5 0 5 0 6.39379883 1.37695312 C6.74466553 2.00537109 7.09553223 2.63378906 7.45703125 3.28125 C7.84697266 3.95800781 8.23691406 4.63476562 8.63867188 5.33203125 C9.02603516 6.04746094 9.41339844 6.76289063 9.8125 7.5 C10.21919922 8.21542969 10.62589844 8.93085938 11.04492188 9.66796875 C12.04674806 11.43589731 13.0256102 13.21680298 14 15 C14.33 10.05 14.66 5.1 15 0 C16.65 0 18.3 0 20 0 C20 8.25 20 16.5 20 25 C18.02 25 16.04 25 14 25 C12.18103004 22.78560178 10.94963415 20.97917909 9.625 18.5 C9.27050781 17.87996094 8.91601562 17.25992187 8.55078125 16.62109375 C7.68038396 15.09201743 6.83744876 13.54736725 6 12 C5.67 16.29 5.34 20.58 5 25 C3.35 25 1.7 25 0 25 C0 16.75 0 8.5 0 0 Z " fill="#0EA2DB" transform="translate(296,364)"/>
<path d="M0 0 C7.92 0 15.84 0 24 0 C24 1.98 24 3.96 24 6 C21.36 6 18.72 6 16 6 C16 13.92 16 21.84 16 30 C13.36 30 10.72 30 8 30 C8 22.08 8 14.16 8 6 C5.36 6 2.72 6 0 6 C0 4.02 0 2.04 0 0 Z " fill="#1CA8DE" transform="translate(365,242)"/>
<path d="M0 0 C1.65 0 3.3 0 5 0 C6.87428786 2.3361553 8.32638858 4.43825053 9.8125 7 C10.21919922 7.66773438 10.62589844 8.33546875 11.04492188 9.0234375 C12.04616957 10.67255135 13.02525841 12.3350819 14 14 C14.33 9.38 14.66 4.76 15 0 C16.65 0 18.3 0 20 0 C20 8.25 20 16.5 20 25 C18.35 25 16.7 25 15 25 C13.3046875 23.20703125 13.3046875 23.20703125 11.875 20.8125 C11.39804688 20.03519531 10.92109375 19.25789063 10.4296875 18.45703125 C9.95789063 17.64621094 9.48609375 16.83539063 9 16 C8.01 14.35 7.02 12.7 6 11 C5.67 15.62 5.34 20.24 5 25 C3.35 25 1.7 25 0 25 C0 16.75 0 8.5 0 0 Z " fill="#069FDA" transform="translate(146,364)"/>
<path d="M0 0 C8.25 0 16.5 0 25 0 C25 1.98 25 3.96 25 6 C22.03 6 19.06 6 16 6 C16 13.92 16 21.84 16 30 C13.69 30 11.38 30 9 30 C9 22.08 9 14.16 9 6 C6.03 6 3.06 6 0 6 C0 4.02 0 2.04 0 0 Z " fill="#0BA1DB" transform="translate(190,201)"/>
<path d="M0 0 C2.64 0 5.28 0 8 0 C8 7.92 8 15.84 8 24 C11.96 24 15.92 24 20 24 C20 25.98 20 27.96 20 30 C13.4 30 6.8 30 0 30 C0 20.1 0 10.2 0 0 Z " fill="#16A5DD" transform="translate(345,201)"/>
<path d="M0 0 C2.64 0 5.28 0 8 0 C8 7.92 8 15.84 8 24 C11.63 24 15.26 24 19 24 C19 25.98 19 27.96 19 30 C12.73 30 6.46 30 0 30 C0 20.1 0 10.2 0 0 Z " fill="#20A9DE" transform="translate(208,242)"/>
<path d="M0 0 C1.2065625 0.0309375 1.2065625 0.0309375 2.4375 0.0625 C3.94298369 3.85201244 5.44095314 7.64445031 6.9375 11.4375 C7.36675781 12.51773437 7.79601562 13.59796875 8.23828125 14.7109375 C8.84736328 16.2578125 8.84736328 16.2578125 9.46875 17.8359375 C9.84580078 18.78903809 10.22285156 19.74213867 10.61132812 20.72412109 C11.4375 23.0625 11.4375 23.0625 11.4375 25.0625 C9.4575 25.0625 7.4775 25.0625 5.4375 25.0625 C5.1075 23.7425 4.7775 22.4225 4.4375 21.0625 C1.4675 21.0625 -1.5025 21.0625 -4.5625 21.0625 C-5.2225 22.3825 -5.8825 23.7025 -6.5625 25.0625 C-8.2125 25.0625 -9.8625 25.0625 -11.5625 25.0625 C-4.49057425 0.1095262 -4.49057425 0.1095262 0 0 Z " fill="#0EA2DC" transform="translate(226.5625,363.9375)"/>
<path d="M0 0 C1.2065625 0.0309375 1.2065625 0.0309375 2.4375 0.0625 C3.9401392 4.04067511 5.43916952 8.02020027 6.9375 12 C7.36675781 13.13630859 7.79601562 14.27261719 8.23828125 15.44335938 C8.84736328 17.06274414 8.84736328 17.06274414 9.46875 18.71484375 C9.84580078 19.71507568 10.22285156 20.71530762 10.61132812 21.74584961 C11.4375 24.0625 11.4375 24.0625 11.4375 25.0625 C9.4575 25.0625 7.4775 25.0625 5.4375 25.0625 C4.9425 22.5875 4.9425 22.5875 4.4375 20.0625 C1.1375 20.0625 -2.1625 20.0625 -5.5625 20.0625 C-5.8925 21.7125 -6.2225 23.3625 -6.5625 25.0625 C-8.2125 25.0625 -9.8625 25.0625 -11.5625 25.0625 C-10.95798416 21.7229186 -10.14296964 18.63587824 -8.96875 15.453125 C-8.66066406 14.61652344 -8.35257812 13.77992188 -8.03515625 12.91796875 C-7.71417969 12.05816406 -7.39320313 11.19835937 -7.0625 10.3125 C-6.58103516 8.99958984 -6.58103516 8.99958984 -6.08984375 7.66015625 C-3.28108246 0.0800264 -3.28108246 0.0800264 0 0 Z " fill="#0DA1DB" transform="translate(357.5625,363.9375)"/>
<path d="M0 0 C0.33 0 0.66 0 1 0 C1 9.57 1 19.14 1 29 C7.27 29 13.54 29 20 29 C20 27.35 20 25.7 20 24 C16.04 24 12.08 24 8 24 C8 21.69 8 19.38 8 17 C11.3 17 14.6 17 18 17 C18 15.35 18 13.7 18 12 C14.7 12 11.4 12 8 12 C8 10.02 8 8.04 8 6 C12.29 6 16.58 6 21 6 C21 4.35 21 2.7 21 1 C21.66 0.67 22.32 0.34 23 0 C23 9.9 23 19.8 23 30 C15.41 30 7.82 30 0 30 C0 20.1 0 10.2 0 0 Z " fill="#E1F3FA" transform="translate(315,242)"/>
<path d="M0 0 C0 1.98 0 3.96 0 6 C-1.32 6 -2.64 6 -4 6 C-4 6.66 -4 7.32 -4 8 C-5.155 8.350625 -6.31 8.70125 -7.5 9.0625 C-13.41683488 11.31803103 -18.2406148 14.89142334 -21.390625 20.45703125 C-22.35635391 22.61631948 -23.22946362 24.76443064 -24 27 C-24.66 27 -25.32 27 -26 27 C-23.3070018 18.75942549 -23.3070018 18.75942549 -21.8125 15.0625 C-20.87782516 13.05932528 -20.87782516 13.05932528 -21 11 C-24.23205279 11.71259223 -24.23205279 11.71259223 -25.60546875 14.72265625 C-26.12753906 15.82480469 -26.64960938 16.92695313 -27.1875 18.0625 C-27.71730469 19.16722656 -28.24710938 20.27195313 -28.79296875 21.41015625 C-29.39044922 22.69212891 -29.39044922 22.69212891 -30 24 C-30.66 24 -31.32 24 -32 24 C-30.75272673 15.8282096 -25.40316091 9.6322972 -19.13671875 4.51171875 C-12.66114339 -0.06972122 -7.79969871 -1.70175245 0 0 Z " fill="#44B7E3" transform="translate(249,114)"/>
<path d="M0 0 C1.98 0 3.96 0 6 0 C7.65 5.61 9.3 11.22 11 17 C12.60390487 11.78047191 12.60390487 11.78047191 14.20092773 6.55883789 C15.88888889 1.11111111 15.88888889 1.11111111 17 0 C18.66617115 -0.04063832 20.33388095 -0.042721 22 0 C20.43889635 8.74218041 17.21518143 16.75983375 14 25 C12.02 25 10.04 25 8 25 C6.8516942 21.58415928 5.70678792 18.16718858 4.5625 14.75 C4.23701172 13.78191406 3.91152344 12.81382812 3.57617188 11.81640625 C3.26357422 10.88183594 2.95097656 9.94726562 2.62890625 8.984375 C2.1968689 7.69611816 2.1968689 7.69611816 1.75610352 6.38183594 C1.08461109 4.26653722 0.50922461 2.15928718 0 0 Z " fill="#11A3DC" transform="translate(192,364)"/>
<path d="M0 0 C5.25938971 0.43828248 7.81192677 0.78914386 12 4 C13.423125 3.938125 13.423125 3.938125 14.875 3.875 C18.39061393 4.01562456 20.19616291 4.92900748 22.80859375 7.2890625 C25.09796733 10.57675308 24.88312084 14.084548 25 18 C22.03 18 19.06 18 16 18 C15.34 16.68 14.68 15.36 14 14 C13.29875 13.29875 12.5975 12.5975 11.875 11.875 C11.25625 11.25625 10.6375 10.6375 10 10 C10 9.34 10 8.68 10 8 C9.34 8 8.68 8 8 8 C8.66 9.65 9.32 11.3 10 13 C6.7 12.34 3.4 11.68 0 11 C0 9.35 0 7.7 0 6 C1.65 6 3.3 6 5 6 C3.35 5.67 1.7 5.34 0 5 C0 3.35 0 1.7 0 0 Z " fill="#59BFE6" transform="translate(250,128)"/>
<path d="M0 0 C0.99 0 1.98 0 3 0 C3.99440161 2.61180181 4.13671868 3.67320901 3.0390625 6.296875 C2.33910156 7.51117188 2.33910156 7.51117188 1.625 8.75 C-2.21309605 16.02105974 -2.29099776 21.96712504 -1 30 C-2.32 30 -3.64 30 -5 30 C-2.14723863 32.93200474 0.65079784 35.64315404 4 38 C3.6875 39.9375 3.6875 39.9375 3 42 C1.515 42.495 1.515 42.495 0 43 C-1.12743666 41.25156882 -2.2518542 39.5011906 -3.375 37.75 C-4.00148437 36.77546875 -4.62796875 35.8009375 -5.2734375 34.796875 C-8.15218582 30.13356324 -9.26351812 27.51446584 -9.1875 21.9375 C-9.18105469 20.89464844 -9.17460937 19.85179687 -9.16796875 18.77734375 C-9 16 -9 16 -8 13 C-7.34 13 -6.68 13 -6 13 C-5.938125 12.34 -5.87625 11.68 -5.8125 11 C-4.7029709 6.90327718 -2.77593041 3.23323686 0 0 Z " fill="#49B9E4" transform="translate(225,125)"/>
<path d="M0 0 C0 6.6 0 13.2 0 20 C-4.95 19.67 -9.9 19.34 -15 19 C-15 16.69 -15 14.38 -15 12 C-11.37 12 -7.74 12 -4 12 C-4 10.35 -4 8.7 -4 7 C-7.63 7 -11.26 7 -15 7 C-15 5.02 -15 3.04 -15 1 C-12.68753088 0.83290546 -10.37502385 0.66633538 -8.0625 0.5 C-6.77472656 0.4071875 -5.48695313 0.314375 -4.16015625 0.21875 C-1 0 -1 0 0 0 Z " fill="#F1F9FC" transform="translate(208,247)"/>
<path d="M0 0 C2.31 0 4.62 0 7 0 C7 9.9 7 19.8 7 30 C4.69 30 2.38 30 0 30 C0 20.1 0 10.2 0 0 Z " fill="#059FDA" transform="translate(246,201)"/>
<path d="M0 0 C1.69059989 2.53589984 2.56297524 4.30376017 3.5078125 7.125 C3.77207031 7.91390625 4.03632813 8.7028125 4.30859375 9.515625 C4.57800781 10.33546875 4.84742188 11.1553125 5.125 12 C5.40214844 12.81984375 5.67929687 13.6396875 5.96484375 14.484375 C6.22652344 15.27328125 6.48820312 16.0621875 6.7578125 16.875 C6.9964502 17.59429687 7.23508789 18.31359375 7.48095703 19.0546875 C8 21 8 21 8 24 C2.72 24 -2.56 24 -8 24 C-2.28571429 2.28571429 -2.28571429 2.28571429 0 0 Z " fill="#ECF7FC" transform="translate(261,299)"/>
<path d="M0 0 C1.75570313 0.01353516 1.75570313 0.01353516 3.546875 0.02734375 C4.43890625 0.03894531 5.3309375 0.05054688 6.25 0.0625 C6.95074844 3.215868 7.25 5.78974974 7.25 9.0625 C7.91 9.3925 8.57 9.7225 9.25 10.0625 C3.75 14.0625 3.75 14.0625 -0.75 14.0625 C-1.08 12.4125 -1.41 10.7625 -1.75 9.0625 C-3.4 9.0625 -5.05 9.0625 -6.75 9.0625 C-6.75 10.7125 -6.75 12.3625 -6.75 14.0625 C-5.1 14.0625 -3.45 14.0625 -1.75 14.0625 C-1.75 14.3925 -1.75 14.7225 -1.75 15.0625 C-3.4 15.0625 -5.05 15.0625 -6.75 15.0625 C-6.75 17.0425 -6.75 19.0225 -6.75 21.0625 C-7.08 21.0625 -7.41 21.0625 -7.75 21.0625 C-7.75 19.0825 -7.75 17.1025 -7.75 15.0625 C-9.4 15.0625 -11.05 15.0625 -12.75 15.0625 C-12.75 14.7325 -12.75 14.4025 -12.75 14.0625 C-11.1 14.0625 -9.45 14.0625 -7.75 14.0625 C-7.75 11.4225 -7.75 8.7825 -7.75 6.0625 C-9.07 6.0625 -10.39 6.0625 -11.75 6.0625 C-11.42 4.4125 -11.09 2.7625 -10.75 1.0625 C-7.14006828 -0.07230527 -3.7657673 -0.03765767 0 0 Z " fill="#08A0DB" transform="translate(256.75,157.9375)"/>
<path d="M0 0 C6.6 0 13.2 0 20 0 C20 1.65 20 3.3 20 5 C17.36 5 14.72 5 12 5 C12 11.6 12 18.2 12 25 C10.35 25 8.7 25 7 25 C7 18.4 7 11.8 7 5 C4.69 5 2.38 5 0 5 C0 3.35 0 1.7 0 0 Z " fill="#17A5DD" transform="translate(239,364)"/>
<path d="M0 0 C0.92039063 -0.01611328 1.84078125 -0.03222656 2.7890625 -0.04882812 C8.60032029 -0.05297902 12.41677523 0.78926067 17.625 3.3125 C20.20352838 3.8620514 20.20352838 3.8620514 22.5625 4 C23.33464844 4.06574219 24.10679687 4.13148438 24.90234375 4.19921875 C25.47082031 4.23660156 26.03929687 4.27398437 26.625 4.3125 C26.295 4.9725 25.965 5.6325 25.625 6.3125 C20.95819328 7.86810224 16.79096569 8.36422527 12.32421875 6.1953125 C10.36724287 4.96481612 8.4787009 3.69291556 6.625 2.3125 C6.295 2.6425 5.965 2.9725 5.625 3.3125 C7.935 4.9625 10.245 6.6125 12.625 8.3125 C12.295 8.9725 11.965 9.6325 11.625 10.3125 C8.82580129 9.12822362 6.84449739 7.65296715 4.625 5.625 C1.99435555 3.05964047 1.99435555 3.05964047 -0.3359375 3.4765625 C-2.69346038 4.44305656 -4.13980048 5.64181851 -6 7.375 C-9.16558824 10.3125 -9.16558824 10.3125 -11.375 10.3125 C-9.88402342 6.5172869 -7.61799151 4.70207269 -4.375 2.3125 C-7.12746919 3.36491469 -9.62956329 4.45958101 -12.1875 5.9375 C-16.34828583 7.73234879 -18.86654038 7.75595504 -23.375 7.3125 C-25.11328125 5.7890625 -25.11328125 5.7890625 -26.375 4.3125 C-25.63894531 4.19132813 -24.90289062 4.07015625 -24.14453125 3.9453125 C-23.16871094 3.77773437 -22.19289062 3.61015625 -21.1875 3.4375 C-20.22457031 3.27507812 -19.26164063 3.11265625 -18.26953125 2.9453125 C-15.42200251 2.43690307 -15.42200251 2.43690307 -13.16015625 1.26171875 C-8.82482905 -0.21581913 -4.54713161 -0.01578865 0 0 Z " fill="#1CA7DE" transform="translate(249.375,182.6875)"/>
<path d="M0 0 C2.9375 0.375 2.9375 0.375 4.9375 2.375 C5.203125 5.30859375 5.203125 5.30859375 5.1875 8.8125 C5.19265625 9.96621094 5.1978125 11.11992187 5.203125 12.30859375 C4.9375 15.375 4.9375 15.375 2.9375 18.375 C-0.1875 18.5625 -0.1875 18.5625 -3.0625 18.375 C-6.07367088 13.35638186 -6.61481257 10.08222989 -6.0625 4.375 C-4.49792272 0.89816161 -3.809658 0.46648874 0 0 Z " fill="#F4FAFD" transform="translate(240.0625,247.625)"/>
<path d="M0 0 C1.65 0 3.3 0 5 0 C5 6.93 5 13.86 5 21 C8.63 21 12.26 21 16 21 C16 22.32 16 23.64 16 25 C10.72 25 5.44 25 0 25 C0 16.75 0 8.5 0 0 Z " fill="#049EDA" transform="translate(329,364)"/>
<path d="M0 0 C2.375 0.9375 2.375 0.9375 4.375 3.9375 C4.95403312 8.02081147 4.93035216 11.73910849 3.1875 15.5 C1.375 16.9375 1.375 16.9375 -1.125 17.5 C-3.625 16.9375 -3.625 16.9375 -5.4375 14.9375 C-7.0580764 10.84341225 -7.11437754 8.34189786 -6.625 3.9375 C-4.58594256 0.84115352 -3.74721416 -0.08921938 0 0 Z " fill="#F0F9FC" transform="translate(282.625,368.0625)"/>
<path d="M0 0 C1.98 0 3.96 0 6 0 C6 8.25 6 16.5 6 25 C4.02 25 2.04 25 0 25 C0 16.75 0 8.5 0 0 Z " fill="#29ACDF" transform="translate(111,364)"/>
<path d="M0 0 C2.4375 0.8125 2.4375 0.8125 4.4375 2.8125 C4.703125 5.30859375 4.703125 5.30859375 4.6875 8.25 C4.69265625 9.21808594 4.6978125 10.18617188 4.703125 11.18359375 C4.4375 13.8125 4.4375 13.8125 2.4375 16.8125 C0 17.25 0 17.25 -2.5625 16.8125 C-5.37146951 13.87615478 -5.97386294 11.76810531 -5.9375 7.75 C-5.94523438 6.89277344 -5.95296875 6.03554688 -5.9609375 5.15234375 C-5.31760191 1.37432394 -3.8803665 -0.28392926 0 0 Z " fill="#F7FCFD" transform="translate(180.5625,368.1875)"/>
<path d="M0 0 C7 1 7 1 8.4375 2.625 C9.5069091 7.14028285 9.66169545 10.67660911 7.5625 14.875 C6 17 6 17 5 18 C3.35 18 1.7 18 0 18 C0 12.06 0 6.12 0 0 Z " fill="#F2FAFC" transform="translate(117,248)"/>
<path d="M0 0 C1.65 0 3.3 0 5 0 C5.33 1.65 5.66 3.3 6 5 C7.0725 4.54625 8.145 4.0925 9.25 3.625 C9.89066406 3.35429687 10.53132813 3.08359375 11.19140625 2.8046875 C13.09719754 1.99299181 13.09719754 1.99299181 15.1875 0.75 C17.49001964 -0.20276675 18.69641736 0.17729192 21 1 C21 1.99 21 2.98 21 4 C14.84382087 9.26556438 8.00386484 11.32015459 0 11 C0 7.37 0 3.74 0 0 Z " fill="#ECF7FB" transform="translate(250,167)"/>
<path d="M0 0 C0.8971875 0.5259375 0.8971875 0.5259375 1.8125 1.0625 C1.4825 2.7125 1.1525 4.3625 0.8125 6.0625 C2.1325 6.0625 3.4525 6.0625 4.8125 6.0625 C4.4825 7.0525 4.1525 8.0425 3.8125 9.0625 C5.7925 8.7325 7.7725 8.4025 9.8125 8.0625 C9.8125 8.7225 9.8125 9.3825 9.8125 10.0625 C11.4625 10.7225 13.1125 11.3825 14.8125 12.0625 C11.44257987 13.07509619 8.32352519 13.22805609 4.8125 13.25 C3.78125 13.26417969 2.75 13.27835938 1.6875 13.29296875 C-1.15295203 13.06526947 -2.77857948 12.52754061 -5.1875 11.0625 C-5.1875 10.0725 -5.1875 9.0825 -5.1875 8.0625 C-6.1775 8.0625 -7.1675 8.0625 -8.1875 8.0625 C-8.5175 6.4125 -8.8475 4.7625 -9.1875 3.0625 C-7.2075 3.0625 -5.2275 3.0625 -3.1875 3.0625 C-3.8475 2.7325 -4.5075 2.4025 -5.1875 2.0625 C-5.1875 1.4025 -5.1875 0.7425 -5.1875 0.0625 C-2.1875 -0.9375 -2.1875 -0.9375 0 0 Z " fill="#6FC7E9" transform="translate(247.1875,145.9375)"/>
<path d="M0 0 C1.65 0 3.3 0 5 0 C5 8.25 5 16.5 5 25 C3.35 25 1.7 25 0 25 C0 16.75 0 8.5 0 0 Z " fill="#059EDA" transform="translate(262,364)"/>
<path d="M0 0 C6.52871458 5.06668583 11.02504674 11.75198938 12.875 19.8125 C12.98180157 22.53594002 12.91520285 24.45776987 12 27 C9.69 27 7.38 27 5 27 C4.375 24.125 4.375 24.125 4 21 C4.66 20.34 5.32 19.68 6 19 C6 21.31 6 23.62 6 26 C7.65 26 9.3 26 11 26 C9.48616831 19.01573108 7.95346348 12.99835839 4 7 C0.9254644 7.7763932 0.9254644 7.7763932 -1 10 C-1 9.34 -1 8.68 -1 8 C-1.66 8 -2.32 8 -3 8 C-2 6 -2 6 0 5 C-0.67285501 2.01838059 -0.67285501 2.01838059 -2.49609375 0.90234375 C-7.86919774 -1.76799163 -13.08258644 -3.07843559 -19 -4 C-19 -3.34 -19 -2.68 -19 -2 C-17.35 -2 -15.7 -2 -14 -2 C-14.99 -1.67 -15.98 -1.34 -17 -1 C-17 -0.34 -17 0.32 -17 1 C-17.99 1 -18.98 1 -20 1 C-20 -0.98 -20 -2.96 -20 -5 C-12.79317589 -7.49466988 -6.0776671 -3.72377698 0 0 Z " fill="#46B8E4" transform="translate(270,119)"/>
<path d="M0 0 C0.66 0.33 1.32 0.66 2 1 C1.54625 1.515625 1.0925 2.03125 0.625 2.5625 C-1.20606377 4.98298656 -1.20606377 4.98298656 -1.6875 8.25 C-3.5016362 13.43324628 -6.85513665 16.49280793 -11 20 C-11.33 20 -11.66 20 -12 20 C-12.62231535 10.12938711 -12.62231535 10.12938711 -10.3125 5.9375 C-7.91068959 3.92517236 -5.95438836 2.98479612 -3 2 C-2.01 1.34 -1.02 0.68 0 0 Z " fill="#BAE4F5" transform="translate(221,116)"/>
<path d="M0 0 C4.85963179 0.60745397 8.7405518 2.72758967 13 5 C13 6.65 13 8.3 13 10 C8.05 10 3.1 10 -2 10 C-1.125 2.25 -1.125 2.25 0 0 Z " fill="#1D9EDB" transform="translate(171,302)"/>
<path d="M0 0 C1.98 0 3.96 0 6 0 C6.33820166 1.5823006 6.67035939 3.16589375 7 4.75 C7.185625 5.63171875 7.37125 6.5134375 7.5625 7.421875 C8 10 8 10 8 14 C4.7 14 1.4 14 -2 14 C-1.34 9.38 -0.68 4.76 0 0 Z " fill="#FC7131" transform="translate(199,334)"/>
<path d="M0 0 C3.21043882 1.38188453 5.04936365 2.92421903 7.25 5.625 C7.77078125 6.25664062 8.2915625 6.88828125 8.828125 7.5390625 C9.40820312 8.26222656 9.40820312 8.26222656 10 9 C9.34 10.65 8.68 12.3 8 14 C6.39414507 13.37935063 4.79037383 12.7533082 3.1875 12.125 C2.29417969 11.77695312 1.40085938 11.42890625 0.48046875 11.0703125 C-2 10 -2 10 -5 8 C-3.8141763 4.62496331 -2.72426311 2.35277269 0 0 Z " fill="#5FC237" transform="translate(178,292)"/>
<path d="M0 0 C0.55171875 0.24621094 1.1034375 0.49242187 1.671875 0.74609375 C1.671875 5.14204181 0.95538872 6.38053037 -1.328125 9.99609375 C-1.885 10.888125 -2.441875 11.78015625 -3.015625 12.69921875 C-3.44875 13.3746875 -3.881875 14.05015625 -4.328125 14.74609375 C-10.078125 11.12109375 -10.078125 11.12109375 -12.328125 7.74609375 C-10.75795307 6.37668807 -9.17147109 5.0259648 -7.578125 3.68359375 C-6.25554687 2.55244141 -6.25554687 2.55244141 -4.90625 1.3984375 C-2.328125 -0.25390625 -2.328125 -0.25390625 0 0 Z " fill="#FCA12F" transform="translate(188.328125,328.25390625)"/>
<path d="M0 0 C1.65 0.33 3.3 0.66 5 1 C4.85795259 2.58367747 4.71119847 4.16693318 4.5625 5.75 C4.48128906 6.63171875 4.40007812 7.5134375 4.31640625 8.421875 C4.03761535 10.69350452 3.61209423 12.79851823 3 15 C-3.75 14.125 -3.75 14.125 -6 13 C-5.51675181 7.84535266 -2.81389239 4.18449681 0 0 Z " fill="#DD1F6E" transform="translate(192,332)"/>
<path d="M0 0 C2.7920147 1.39600735 3.00162933 3.00416384 4.125 5.875 C4.65480469 7.20144531 4.65480469 7.20144531 5.1953125 8.5546875 C6 11 6 11 6 14 C4.02 14.99 4.02 14.99 2 16 C-5.66742597 8.88610478 -5.66742597 8.88610478 -7 4 C-1.7265625 0.77734375 -1.7265625 0.77734375 0 0 Z " fill="#1171A2" transform="translate(188,285)"/>
<path d="M0 0 C0 4 0 4 -1.8984375 5.921875 C-2.71570313 6.52515625 -3.53296875 7.1284375 -4.375 7.75 C-5.59316406 8.67039062 -5.59316406 8.67039062 -6.8359375 9.609375 C-9 11 -9 11 -11 11 C-13.43160605 7.63316085 -14 6.26649636 -14 2 C-12.42085985 1.46658816 -10.83645613 0.94874237 -9.25 0.4375 C-8.36828125 0.14746094 -7.4865625 -0.14257812 -6.578125 -0.44140625 C-3.92165684 -1.01697435 -2.52968894 -0.89248371 0 0 Z " fill="#C18F37" transform="translate(185,323)"/>
<path d="M0 0 C4.30872286 1.43624095 5.54602565 2.54602565 9 6 C6.03 9.3 3.06 12.6 0 16 C-1.32 15.34 -2.64 14.68 -4 14 C-3.36843005 8.94744036 -1.86540627 4.70406799 0 0 Z " fill="#DDAB43" transform="translate(214,285)"/>
<path d="M0 0 C0 4.62 0 9.24 0 14 C-1.65 14 -3.3 14 -5 14 C-5.64995297 12.58521865 -6.29478722 11.16808513 -6.9375 9.75 C-7.29714844 8.96109375 -7.65679687 8.1721875 -8.02734375 7.359375 C-8.90033279 5.24176302 -9.51338508 3.23330638 -10 1 C-6.78548731 -0.60725635 -3.56387464 -0.05748185 0 0 Z " fill="#255171" transform="translate(201,283)"/>
<path d="M0 0 C0.33 2.97 0.66 5.94 1 9 C-3.62 9 -8.24 9 -13 9 C-13.33 7.68 -13.66 6.36 -14 5 C-12.23628182 3.96692229 -10.46374967 2.94887951 -8.6875 1.9375 C-7.70136719 1.36902344 -6.71523437 0.80054688 -5.69921875 0.21484375 C-3 -1 -3 -1 0 0 Z " fill="#C72639" transform="translate(233,303)"/>
<path d="M0 0 C5 4 5 4 5.8125 6.25 C5.874375 6.8275 5.93625 7.405 6 8 C4.40089132 9.00806851 2.79551738 10.00620385 1.1875 11 C-0.15248047 11.8353125 -0.15248047 11.8353125 -1.51953125 12.6875 C-4 14 -4 14 -7 14 C-7.66 12.68 -8.32 11.36 -9 10 C-6.03 6.7 -3.06 3.4 0 0 Z " fill="#55A342" transform="translate(224,292)"/>
<path d="M0 0 C2.94585377 0.39034087 5.23706523 1.57328257 7.8125 3 C11.60534187 4.96402318 14.76037624 5.64669802 19 6 C19 7.65 19 9.3 19 11 C11.53515743 10.84905649 5.7751698 10.00804198 0 5 C-0.66 4.01 -1.32 3.02 -2 2 C-1.34 1.34 -0.68 0.68 0 0 Z " fill="#EEF8FC" transform="translate(230,167)"/>
<path d="M0 0 C3.42291749 1.21414108 4.93297845 2.888246 6.8125 5.9375 C7.25207031 6.62714844 7.69164062 7.31679688 8.14453125 8.02734375 C9 10 9 10 8 13 C5.01540871 14.95542188 3.73585209 15 0 15 C-1.5912689 10.126739 -2.21192221 6.19209404 -2 1 C-1.34 0.67 -0.68 0.34 0 0 Z " fill="#A5234A" transform="translate(209,332)"/>
<path d="M0 0 C3.43950364 0.61198376 5.51564485 1.92058847 8.25 4.0625 C8.95640625 4.61035156 9.6628125 5.15820312 10.390625 5.72265625 C11.18726563 6.35494141 11.18726563 6.35494141 12 7 C10.63426179 9.8369841 9.49096931 12.00722456 7 14 C6.01 14 5.02 14 4 14 C2.32421875 11.953125 2.32421875 11.953125 0.6875 9.25 C0.13449219 8.36828125 -0.41851562 7.4865625 -0.98828125 6.578125 C-2 4 -2 4 -1.16796875 1.671875 C-0.78253906 1.12015625 -0.39710938 0.5684375 0 0 Z " fill="#FBC414" transform="translate(215,328)"/>
<path d="M0 0 C4.62 0 9.24 0 14 0 C14 1.98 14 3.96 14 6 C12.4188708 6.50692692 10.83498617 7.00526443 9.25 7.5 C8.36828125 7.7784375 7.4865625 8.056875 6.578125 8.34375 C4 9 4 9 0 9 C0 6.03 0 3.06 0 0 Z " fill="#46824B" transform="translate(169,314)"/>
<path d="M0 0 C1.65 0 3.3 0 5 0 C5.68790946 7.9109588 2.94427173 14.83736905 -2 21 C-3.32 20.34 -4.64 19.68 -6 19 C-4.95668802 16.2713379 -3.85881954 13.74587518 -2.4375 11.1875 C-0.69733685 7.32887736 -0.36221498 4.20169375 0 0 Z " fill="#F1F9FC" transform="translate(276,147)"/>
<path d="M0 0 C4.62 0 9.24 0 14 0 C14 2.97 14 5.94 14 9 C12.41642541 8.68872484 10.83315007 8.37592711 9.25 8.0625 C8.36828125 7.88847656 7.4865625 7.71445312 6.578125 7.53515625 C4.36764947 7.07631512 2.18487932 6.56663926 0 6 C0 4.02 0 2.04 0 0 Z " fill="#FE442D" transform="translate(220,314)"/>
<path d="M0 0 C0.99 0 1.98 0 3 0 C3.99653986 2.62120182 4.11297486 3.71112758 3.07421875 6.3671875 C2.61660156 7.19476563 2.15898437 8.02234375 1.6875 8.875 C-0.25685551 12.52606757 -1.84476726 16.009196 -3 20 C-4.32 20 -5.64 20 -7 20 C-7.99845784 12.67797581 -4.55325911 7.2403498 -1 1 C-0.67 0.67 -0.34 0.34 0 0 Z " fill="#F2F9FC" transform="translate(225,125)"/>
<path d="M0 0 C2.97 0.33 5.94 0.66 9 1 C8.36843005 6.05255964 6.86540627 10.29593201 5 15 C3.35 14.67 1.7 14.34 0 14 C0 9.38 0 4.76 0 0 Z " fill="#E4283F" transform="translate(203,283)"/>
<path d="M0 0 C4.16983959 1.38994653 4.91332353 3.6081824 6.92578125 7.3671875 C8.61097875 11.49745337 8.89836271 15.57415808 9 20 C7.35 20 5.7 20 4 20 C3.89042969 19.40832031 3.78085937 18.81664062 3.66796875 18.20703125 C2.72957591 13.53032549 1.64806099 10.02965803 -1 6 C-1.8125 3.8125 -1.8125 3.8125 -2 2 C-1.34 1.34 -0.68 0.68 0 0 Z " fill="#F3FAFD" transform="translate(272,125)"/>
<path d="M0 0 C1.58357459 0.31127516 3.16684993 0.62407289 4.75 0.9375 C5.63171875 1.11152344 6.5134375 1.28554688 7.421875 1.46484375 C9.63235053 1.92368488 11.81512068 2.43336074 14 3 C12.81323934 7.10801767 12.10551666 8.89448334 9 12 C5.7 9.69 2.4 7.38 -1 5 C-0.67 3.35 -0.34 1.7 0 0 Z " fill="#2EBEE2" transform="translate(219,322)"/>
<path d="M0 0 C0 1.32 0 2.64 0 4 C-0.73605469 4.25394531 -1.47210938 4.50789063 -2.23046875 4.76953125 C-3.20628906 5.11371094 -4.18210938 5.45789063 -5.1875 5.8125 C-6.15042969 6.14894531 -7.11335937 6.48539062 -8.10546875 6.83203125 C-11.05257317 7.92522069 -11.05257317 7.92522069 -13.71875 9.6875 C-14.4715625 10.120625 -15.224375 10.55375 -16 11 C-18.3125 10.1875 -18.3125 10.1875 -20 9 C-18.47212852 4.41638555 -15.07549749 3.41418274 -10.9453125 1.23046875 C-6.9629028 -0.43327005 -4.24915285 -0.48103617 0 0 Z " fill="#F2FAFD" transform="translate(248,115)"/>
<path d="M0 0 C0.33 0 0.66 0 1 0 C0.67 3.63 0.34 7.26 0 11 C2.1346875 9.824375 2.1346875 9.824375 4.3125 8.625 C5.11300781 8.18414062 5.91351563 7.74328125 6.73828125 7.2890625 C8.53527943 6.26486665 10.27900708 5.14732862 12 4 C10.60306939 8.88925715 8.06012438 11.05441957 4 14 C0.46558693 15.81030914 -2.0760223 16.07181989 -6 16 C-4.43551329 10.3856009 -2.83604813 5.13189662 0 0 Z " fill="#1BA7DE" transform="translate(282,163)"/>
<path d="M0 0 C3.26564448 2.6527376 4.26470079 5.80364271 5.6875 9.6875 C6.34298828 11.45673828 6.34298828 11.45673828 7.01171875 13.26171875 C7.50091797 14.61716797 7.50091797 14.61716797 8 16 C1.4716673 15.97372904 -2.74203977 15.22602136 -7.625 10.765625 C-9.27544937 8.64629797 -10.1080376 6.52150908 -11 4 C-10.31292969 4.42152344 -9.62585938 4.84304687 -8.91796875 5.27734375 C-8.01691406 5.82519531 -7.11585938 6.37304688 -6.1875 6.9375 C-5.29417969 7.48277344 -4.40085938 8.02804688 -3.48046875 8.58984375 C-0.99296438 10.11009578 -0.99296438 10.11009578 2 11 C1.505 9.948125 1.505 9.948125 1 8.875 C-0.09044562 5.73996884 -0.15322643 3.29436818 0 0 Z " fill="#1CA7DE" transform="translate(216,163)"/>
<path d="M0 0 C0.33 0 0.66 0 1 0 C1.66 3.96 2.32 7.92 3 12 C5.64 8.7 8.28 5.4 11 2 C12 5 12 5 10.875 7.875 C8.10679964 12.48866727 4.50130162 16.05087135 0 19 C-0.66 19 -1.32 19 -2 19 C-1.8595017 16.2079699 -1.71284617 13.41650204 -1.5625 10.625 C-1.52318359 9.8309375 -1.48386719 9.036875 -1.44335938 8.21875 C-1.11328125 2.2265625 -1.11328125 2.2265625 0 0 Z " fill="#20A9DE" transform="translate(286,152)"/>
<path d="M0 0 C0.66 0.33 1.32 0.66 2 1 C2.85426796 8.56637336 1.18168642 12.0861253 -3.37109375 18.12890625 C-3.90863281 18.74636719 -4.44617188 19.36382812 -5 20 C-5.33 20 -5.66 20 -6 20 C-6.67548578 17.94037148 -7.34004312 15.87715678 -8 13.8125 C-8.37125 12.66394531 -8.7425 11.51539063 -9.125 10.33203125 C-9.90630553 7.35679188 -10.18363306 5.04716104 -10 2 C-7.59927045 4.88087546 -5.52708963 7.56404834 -4 11 C-2.03810791 7.3321148 -0.60698743 4.12751449 0 0 Z " fill="#25ABDF" transform="translate(296,140)"/>
<path d="M0 0 C2.93050271 1.34260917 5.20913591 2.87148538 7.625 5 C8.21539062 5.515625 8.80578125 6.03125 9.4140625 6.5625 C10.64090196 7.67451212 11.82916568 8.82916568 13 10 C7.74846022 12.21117464 2.61968228 12.91153902 -3 12 C-5.75137229 10.59743544 -7.6442517 9.04847679 -10 7 C-7.30925 5.654625 -5.96806747 6.28470731 -3.0625 6.9375 C-0.23734783 7.5657739 2.09412085 8 5 8 C4.360625 7.236875 3.72125 6.47375 3.0625 5.6875 C1 3 1 3 0 0 Z " fill="#22AADF" transform="translate(223,173)"/>
<path d="M0 0 C0.66 0.33 1.32 0.66 2 1 C2.33 6.61 2.66 12.22 3 18 C-1.50993513 16.19602595 -2.80074568 15.60002214 -5.75 12.1875 C-6.63945312 11.18783203 -6.63945312 11.18783203 -7.546875 10.16796875 C-9.16444605 7.7546571 -9.6209234 5.85803804 -10 3 C-8.2925002 4.28062485 -6.62626404 5.61767557 -5 7 C-5 7.66 -5 8.32 -5 9 C-4.34 9 -3.68 9 -3 9 C-2.67 9.66 -2.34 10.32 -2 11 C-1.34 7.37 -0.68 3.74 0 0 Z " fill="#20A9DE" transform="translate(212,153)"/>
<path d="M0 0 C0.02693575 2.12493141 0.04636628 4.24995912 0.0625 6.375 C0.07410156 7.55835938 0.08570313 8.74171875 0.09765625 9.9609375 C0 13 0 13 -1 15 C2.96 12.525 2.96 12.525 7 10 C6 14 6 14 3.71484375 15.484375 C2.79832031 15.90203125 1.88179688 16.3196875 0.9375 16.75 C0.01839844 17.17796875 -0.90070313 17.6059375 -1.84765625 18.046875 C-2.55792969 18.36140625 -3.26820313 18.6759375 -4 19 C-3.67 15.7 -3.34 12.4 -3 9 C-4.65 9.66 -6.3 10.32 -8 11 C-7.33333333 9.33333333 -6.66666667 7.66666667 -6 6 C-5.505 4.63875 -5.505 4.63875 -5 3.25 C-3.76151271 0.4634036 -3.03036895 0 0 0 Z " fill="#EEF8FC" transform="translate(285,156)"/>
<path d="M0 0 C0.33 0 0.66 0 1 0 C1.19335938 0.71027344 1.38671875 1.42054688 1.5859375 2.15234375 C1.84632813 3.07144531 2.10671875 3.99054688 2.375 4.9375 C2.63023437 5.85402344 2.88546875 6.77054688 3.1484375 7.71484375 C3.76660104 10.16745087 3.76660104 10.16745087 6 11 C6.4021875 9.88625 6.4021875 9.88625 6.8125 8.75 C7.94229421 6.13363446 9.20893202 4.19812889 11 2 C10.31195504 8.19240462 8.71951285 14.01955594 7 20 C2.06051645 15.59451467 -0.74348268 11.39885443 -1.25 4.6875 C-1 2 -1 2 0 0 Z " fill="#30AFE1" transform="translate(202,140)"/>
<path d="M0 0 C-1.07401108 2.91517292 -1.77810176 4.77810176 -4 7 C0.62 6.67 5.24 6.34 10 6 C5.64174977 10.35825023 3.94374481 11.14328461 -1.875 11.1875 C-5.68003233 11.15968544 -8.58143244 10.82323603 -12 9 C-11.278125 8.443125 -10.55625 7.88625 -9.8125 7.3125 C-6.92913577 5.0270024 -6.92913577 5.0270024 -4.3125 2.25 C-2 0 -2 0 0 0 Z " fill="#25ABDF" transform="translate(275,174)"/>
<path d="M0 0 C2.0625 0.4375 2.0625 0.4375 4 1 C3.49675344 3.6168821 2.72561298 5.53734125 1.5 7.9375 C0.13847378 10.7172827 -0.55317708 12.96160412 -1 16 C-2.65 16 -4.3 16 -6 16 C-5.5692014 9.8611199 -4.56008841 4.56008841 0 0 Z " fill="#E8F6FB" transform="translate(230,130)"/>
<path d="M0 0 C7.53171922 0.17296224 12.70281864 1.87793201 19 6 C19 7.32 19 8.64 19 10 C18.01 10 17.02 10 16 10 C15.67 9.01 15.34 8.02 15 7 C13.7315625 7.061875 13.7315625 7.061875 12.4375 7.125 C8.57786731 6.98464972 5.66311987 6.17219836 2 5 C2 4.34 2 3.68 2 3 C1.34 2.67 0.68 2.34 0 2 C0 1.34 0 0.68 0 0 Z " fill="#F1F9FC" transform="translate(251,115)"/>
<path d="M0 0 C0 1.65 0 3.3 0 5 C-0.59167969 5.19335938 -1.18335938 5.38671875 -1.79296875 5.5859375 C-5.9146645 6.94414719 -9.9950524 8.32050585 -14 10 C-14.66 8.68 -15.32 7.36 -16 6 C-11.10143083 1.5467553 -6.60452917 0 0 0 Z " fill="#EFF9FC" transform="translate(249,121)"/>
<path d="M0 0 C0.33 0 0.66 0 1 0 C1.33 3.96 1.66 7.92 2 12 C3.98 9.69 5.96 7.38 8 5 C8.33 5.66 8.66 6.32 9 7 C7.75506252 9.28974316 6.47358472 11.44190034 5.0625 13.625 C4.67642578 14.23601562 4.29035156 14.84703125 3.89257812 15.4765625 C2.93553674 16.9889242 1.96867189 18.49506117 1 20 C-1.07749183 15.84501634 -2.15618804 13.27808054 -2.1875 8.5625 C-2.20167969 7.59441406 -2.21585938 6.62632812 -2.23046875 5.62890625 C-2 3 -2 3 0 0 Z " fill="#1CA8DE" transform="translate(206,128)"/>
<path d="M0 0 C0.66 0.33 1.32 0.66 2 1 C4.15083538 7.45250614 3.1500933 13.68410093 1 20 C-1.63520741 17.59497637 -3.40302943 14.9814151 -5.25 11.9375 C-5.79140625 11.05964844 -6.3328125 10.18179688 -6.890625 9.27734375 C-7.25671875 8.52582031 -7.6228125 7.77429688 -8 7 C-7.67 6.34 -7.34 5.68 -7 5 C-5.02 6.98 -3.04 8.96 -1 11 C-0.67 7.37 -0.34 3.74 0 0 Z " fill="#23AADF" transform="translate(292,128)"/>
<path d="M0 0 C1.65 0 3.3 0 5 0 C4.53031881 5.63617433 3.09327687 10.21417541 0 15 C-0.99 15.495 -0.99 15.495 -2 16 C-2 15.34 -2 14.68 -2 14 C-2.99 14 -3.98 14 -5 14 C-4.731875 13.360625 -4.46375 12.72125 -4.1875 12.0625 C-2.64635858 8.08797739 -1.32390688 4.05115505 0 0 Z " fill="#F4FAFD" transform="translate(270,147)"/>
<path d="M0 0 C1.32 0 2.64 0 4 0 C5.38228901 3.14156592 4.91178547 4.23943945 3.6875 7.5625 C2 11 2 11 0 14 C0.99 14 1.98 14 3 14 C3.33 15.65 3.66 17.3 4 19 C2 19 2 19 -0.0625 17.0625 C-2.58384055 13.07715526 -2.79810343 9.63352621 -3 5 C-1.35 4.67 0.3 4.34 2 4 C2 3.34 2 2.68 2 2 C1.34 2 0.68 2 0 2 C0 1.34 0 0.68 0 0 Z " fill="#37B2E2" transform="translate(265,147)"/>
<path d="M0 0 C0.33 0.66 0.66 1.32 1 2 C3.31 2 5.62 2 8 2 C7.67 3.65 7.34 5.3 7 7 C6.01 7 5.02 7 4 7 C4 7.66 4 8.32 4 9 C4.99 9.33 5.98 9.66 7 10 C6 11 6 11 4.15234375 11.09765625 C2.1015625 11.06510417 0.05078125 11.03255208 -2 11 C-2 10.01 -2 9.02 -2 8 C-2.66 7.67 -3.32 7.34 -4 7 C-3.34 7 -2.68 7 -2 7 C-1.855625 6.401875 -1.71125 5.80375 -1.5625 5.1875 C-1.1127561 3.43849596 -0.57107659 1.71322977 0 0 Z " fill="#069FDA" transform="translate(238,139)"/>
<path d="M0 0 C4.87492223 0.38234684 9.35012736 1.5765696 14 3 C14 4.65 14 6.3 14 8 C7.36501601 7.64455443 3.36812782 5.86904957 -2 2 C-1.34 1.34 -0.68 0.68 0 0 Z " fill="#EBF7FC" transform="translate(235,164)"/>
<path d="M0 0 C6.25644413 -0.3830476 10.20764245 0.41412609 16 3 C18.99042608 3.51840452 21.97275357 3.80092937 25 4 C24.67 4.66 24.34 5.32 24 6 C20.24738275 7.25087242 16.88885936 7.64582843 13 7 C10.8016453 5.88061719 8.85328943 4.59098019 6.83203125 3.1796875 C4.6143323 1.7516596 2.61599961 1.24524996 0 1 C0 0.67 0 0.34 0 0 Z " fill="#17A6DD" transform="translate(251,183)"/>
<path d="M0 0 C2.21070341 1.65802755 3.55817681 2.69814192 5 5 C5.43788102 8.37425965 5.29562191 11.61677147 5 15 C1.78475695 13.59155282 -0.32183868 11.89655214 -2.75 9.375 C-3.36359375 8.74335938 -3.9771875 8.11171875 -4.609375 7.4609375 C-5.29773438 6.73777344 -5.29773438 6.73777344 -6 6 C-5.67 5.01 -5.34 4.02 -5 3 C-3.02 4.65 -1.04 6.3 1 8 C0.67 5.36 0.34 2.72 0 0 Z " fill="#39B3E2" transform="translate(286,121)"/>
<path d="M0 0 C7.625 0.875 7.625 0.875 11 2 C12.1875 4.5625 12.1875 4.5625 13 7 C13.66 7 14.32 7 15 7 C15 7.66 15 8.32 15 9 C14.25234375 8.79503906 13.5046875 8.59007812 12.734375 8.37890625 C11.74953125 8.10949219 10.7646875 7.84007812 9.75 7.5625 C8.28820312 7.16224609 8.28820312 7.16224609 6.796875 6.75390625 C4.53627347 6.14455416 2.27377991 5.55761745 0 5 C0 3.35 0 1.7 0 0 Z " fill="#E5F5FB" transform="translate(250,121)"/>
<path d="M0 0 C2.0625 0.4375 2.0625 0.4375 4 1 C4 1.99 4 2.98 4 4 C4.66 4 5.32 4 6 4 C10.21348564 8.21348564 11.63258872 10.87647862 12 17 C11.278125 16.2575 10.55625 15.515 9.8125 14.75 C7.10300342 11.98447612 7.10300342 11.98447612 4.1875 9.875 C3.1046875 8.946875 3.1046875 8.946875 2 8 C2 7.01 2 6.02 2 5 C1.34 5 0.68 5 0 5 C-0.5625 3.0625 -0.5625 3.0625 -1 1 C-0.67 0.67 -0.34 0.34 0 0 Z " fill="#0DA2DB" transform="translate(263,123)"/>
<path d="M0 0 C2.33294775 -0.04241723 4.66702567 -0.04092937 7 0 C8 1 8 1 8.125 4 C8 7 8 7 7 8 C4.66702567 8.04092937 2.33294775 8.04241723 0 8 C0 5.36 0 2.72 0 0 Z " fill="#F6FBFD" transform="translate(263,248)"/>
<path d="M0 0 C3.94403545 0.58430155 6.30101335 2.08217659 9 5 C9.71290459 7.99626566 9.92775401 10.92626139 10 14 C8.35 14 6.7 14 5 14 C5 11.36 5 8.72 5 6 C4.34 6 3.68 6 3 6 C2.01 4.02 1.02 2.04 0 0 Z " fill="#E6F5FB" transform="translate(265,132)"/>
<path d="M0 0 C0.99 0.99 1.98 1.98 3 3 C2.68289062 3.56203125 2.36578125 4.1240625 2.0390625 4.703125 C0.93125475 7.15196317 0.61024601 9.08387855 0.375 11.75 C0.30023438 12.54921875 0.22546875 13.3484375 0.1484375 14.171875 C0.09945312 14.77515625 0.05046875 15.3784375 0 16 C-0.66 15.67 -1.32 15.34 -2 15 C-2 14.34 -2 13.68 -2 13 C-2.66 13 -3.32 13 -4 13 C-5.35386936 11.34997172 -6.68678142 9.6825613 -8 8 C-8.66 7.67 -9.32 7.34 -10 7 C-9.67 5.35 -9.34 3.7 -9 2 C-8.38125 2.78375 -7.7625 3.5675 -7.125 4.375 C-5.10141339 6.96837647 -5.10141339 6.96837647 -3 9 C-2.01 6.03 -1.02 3.06 0 0 Z " fill="#D0EDF8" transform="translate(211,149)"/>
<path d="M0 0 C2.64 0 5.28 0 8 0 C8.33 1.65 8.66 3.3 9 5 C5.5647952 7.29013653 4.014669 7.17842973 0 7 C0 4.69 0 2.38 0 0 Z " fill="#E7F5FB" transform="translate(325,219)"/>
<path d="M0 0 C0.33 0 0.66 0 1 0 C1.48024585 5.28270434 1.19257791 8.13661535 -1.625 12.6875 C-3.85510855 16.08310684 -3.85510855 16.08310684 -3.3125 20.0625 C-2.879375 20.701875 -2.44625 21.34125 -2 22 C-2.66 22.33 -3.32 22.66 -4 23 C-4.33 22.34 -4.66 21.68 -5 21 C-8.02934491 20.34227572 -8.02934491 20.34227572 -11 20 C-11.33 18.35 -11.66 16.7 -12 15 C-10.02 15.99 -10.02 15.99 -8 17 C-8 17.66 -8 18.32 -8 19 C-7.34 19 -6.68 19 -6 19 C-5.814375 17.91912109 -5.814375 17.91912109 -5.625 16.81640625 C-5.00260484 14.01173808 -4.11182197 11.58216475 -3 8.9375 C-1.75801236 5.97408096 -0.69608521 3.13963431 0 0 Z " fill="#67C4E9" transform="translate(275,147)"/>
<path d="M0 0 C0 1.65 0 3.3 0 5 C-6.625 7 -6.625 7 -10 7 C-10.66 6.01 -11.32 5.02 -12 4 C-7.96889361 0.80291562 -5.14313574 -0.13900367 0 0 Z " fill="#ECF7FC" transform="translate(249,128)"/>
<path d="M0 0 C7.38461538 0.49230769 7.38461538 0.49230769 10.5 3.0625 C10.995 3.701875 11.49 4.34125 12 5 C11.34 5.66 10.68 6.32 10 7 C7.6171875 6.7578125 7.6171875 6.7578125 4.875 6.125 C3.50988281 5.81949219 3.50988281 5.81949219 2.1171875 5.5078125 C1.41851562 5.34023437 0.71984375 5.17265625 0 5 C0 3.35 0 1.7 0 0 Z " fill="#ECF7FC" transform="translate(250,128)"/>
<path d="M0 0 C5.75 -0.125 5.75 -0.125 8 1 C8 2.65 8 4.3 8 6 C5.29120665 7.35439668 2.99066732 7.06501451 0 7 C0 4.69 0 2.38 0 0 Z " fill="#ECF7FC" transform="translate(376,378)"/>
<path d="M0 0 C2.31 0 4.62 0 7 0 C7.625 2.375 7.625 2.375 8 5 C6 7 6 7 2.875 7.125 C1.451875 7.063125 1.451875 7.063125 0 7 C0 4.69 0 2.38 0 0 Z " fill="#EBF7FB" transform="translate(325,207)"/>
<path d="M0 0 C1.43088528 2.86177057 0.59991697 4.93375773 0 8 C0.61875 7.505 1.2375 7.01 1.875 6.5 C4 5 4 5 6 5 C4.61811547 8.21043882 3.07578097 10.04936365 0.375 12.25 C-0.25664062 12.77078125 -0.88828125 13.2915625 -1.5390625 13.828125 C-2.02117187 14.21484375 -2.50328125 14.6015625 -3 15 C-3.08142927 13.2507786 -3.13938541 11.50045458 -3.1875 9.75 C-3.22230469 8.77546875 -3.25710937 7.8009375 -3.29296875 6.796875 C-2.96075202 3.62531258 -2.11327721 2.32959693 0 0 Z " fill="#19A6DD" transform="translate(212,121)"/>
<path d="M0 0 C0.66 0.99 1.32 1.98 2 3 C0.71284028 4.64936048 -0.57987019 6.29439047 -1.875 7.9375 C-2.95394531 9.31228516 -2.95394531 9.31228516 -4.0546875 10.71484375 C-6 13 -6 13 -8 14 C-8.22151549 12.20991533 -8.42682213 10.41781838 -8.625 8.625 C-8.74101562 7.62726563 -8.85703125 6.62953125 -8.9765625 5.6015625 C-8.98429687 4.74304688 -8.99203125 3.88453125 -9 3 C-8.34 2.34 -7.68 1.68 -7 1 C-6.34 3.31 -5.68 5.62 -5 8 C-3.35 5.36 -1.7 2.72 0 0 Z " fill="#D2EDF8" transform="translate(296,151)"/>
<path d="M0 0 C3.01198042 1.50599021 3.57241758 4.02586996 5 7 C5.99 8.485 5.99 8.485 7 10 C5.10353002 9.88506243 3.20781668 9.75760358 1.3125 9.625 C0.25675781 9.55539063 -0.79898438 9.48578125 -1.88671875 9.4140625 C-4.90677269 9.01239911 -7.24078054 8.25930981 -10 7 C-10 6.67 -10 6.34 -10 6 C-6.37 6 -2.74 6 1 6 C0.34 4.35 -0.32 2.7 -1 1 C-0.67 0.67 -0.34 0.34 0 0 Z " fill="#D2EDF8" transform="translate(222,172)"/>
<path d="M0 0 C1.65 0 3.3 0 5 0 C5.99 2.97 6.98 5.94 8 9 C6.68 9.99 5.36 10.98 4 12 C3.32645501 10.56570999 2.66140299 9.12742943 2 7.6875 C1.62875 6.88699219 1.2575 6.08648437 0.875 5.26171875 C0 3 0 3 0 0 Z " fill="#F1F9FC" transform="translate(231,147)"/>
<path d="M0 0 C2.5 1.125 2.5 1.125 5 3 C5.3125 6.1875 5.3125 6.1875 5 9 C4.34 9 3.68 9 3 9 C3 9.66 3 10.32 3 11 C2.01 11 1.02 11 0 11 C0 9.35 0 7.7 0 6 C-0.66 5.67 -1.32 5.34 -2 5 C-2 4.01 -2 3.02 -2 2 C-1.34 2 -0.68 2 0 2 C0 1.34 0 0.68 0 0 Z " fill="#E6F5FB" transform="translate(248,141)"/>
<path d="M0 0 C1.32 0.66 2.64 1.32 4 2 C2.69386058 5.91841827 1.16870152 8.32640809 -2 11 C-2.66 11 -3.32 11 -4 11 C-3.56179109 6.44262737 -3.14958831 3.42346555 0 0 Z " fill="#EBF7FB" transform="translate(235,134)"/>
<path d="M0 0 C0.66 0.33 1.32 0.66 2 1 C1.67 1.99 1.34 2.98 1 4 C-4.76081841 5.2982126 -10.08739655 6.25706972 -16 6 C-14.4375 4 -14.4375 4 -12 2 C-8.5625 1.875 -8.5625 1.875 -5 2 C-3.3207762 1.36562656 -1.64991582 0.70710678 0 0 Z " fill="#C5E8F6" transform="translate(286,176)"/>
<path d="M0 0 C4.455 2.97 4.455 2.97 9 6 C8.67 4.35 8.34 2.7 8 1 C8.66 1 9.32 1 10 1 C10.99 4.3 11.98 7.6 13 11 C11.20601733 10.04600922 9.41488345 9.08665974 7.625 8.125 C6.62726563 7.59132812 5.62953125 7.05765625 4.6015625 6.5078125 C2 5 2 5 0 3 C0 2.01 0 1.02 0 0 Z " fill="#D2EDF8" transform="translate(206,165)"/>
<path d="M0 0 C3.87132028 0.57352893 6.08172796 2.48704352 9 5 C8.6875 6.9375 8.6875 6.9375 8 9 C7.01 9.33 6.02 9.66 5 10 C4.16121545 8.71186658 3.32913217 7.41936744 2.5 6.125 C2.0359375 5.40570313 1.571875 4.68640625 1.09375 3.9453125 C0 2 0 2 0 0 Z " fill="#E9F6FB" transform="translate(220,158)"/>
<path d="M0 0 C2.31 0 4.62 0 7 0 C7.042721 1.66611905 7.04063832 3.33382885 7 5 C6 6 6 6 2.9375 6.0625 C1.4834375 6.0315625 1.4834375 6.0315625 0 6 C0 4.02 0 2.04 0 0 Z " fill="#EBF7FC" transform="translate(376,369)"/>
<path d="M0 0 C0.33 0 0.66 0 1 0 C2.67173466 5.77508339 1.21121958 10.58397318 -1 16 C-1.66 16.66 -2.32 17.32 -3 18 C-6.07692308 13.56923077 -6.07692308 13.56923077 -5.6875 10.6875 C-5.460625 10.130625 -5.23375 9.57375 -5 9 C-4.34 10.32 -3.68 11.64 -3 13 C-1.41744803 8.67435795 -0.54855348 4.571279 0 0 Z " fill="#D6EFF9" transform="translate(295,134)"/>
<path d="M0 0 C1.65 0 3.3 0 5 0 C5.33 2.64 5.66 5.28 6 8 C4.33388095 8.042721 2.66617115 8.04063832 1 8 C0 7 0 7 -0.0625 3.4375 C-0.041875 2.303125 -0.02125 1.16875 0 0 Z " fill="#DEF2FA" transform="translate(218,147)"/>
<path d="M0 0 C1.63129887 4.06285757 0.29968777 7.20102184 -0.9375 11.25 C-1.31777344 12.51328125 -1.69804687 13.7765625 -2.08984375 15.078125 C-2.39019531 16.04234375 -2.69054687 17.0065625 -3 18 C-4.5 16.625 -4.5 16.625 -6 15 C-6 14.34 -6 13.68 -6 13 C-5.34 13 -4.68 13 -4 13 C-4.0825 12.154375 -4.165 11.30875 -4.25 10.4375 C-3.92462977 5.96365938 -2.40067871 3.75106048 0 0 Z " fill="#2BADE0" transform="translate(212,142)"/>
<path d="M0 0 C2.4375 0.625 2.4375 0.625 5 2 C5.8125 5.125 5.8125 5.125 6 8 C2.22454612 6.90931332 -0.47043472 6.0916909 -3 3 C-2.01 2.01 -1.02 1.02 0 0 Z " fill="#E8F6FB" transform="translate(240,157)"/>
<path d="M0 0 C2.29633824 3.44450737 2.54016485 5.93812283 3 10 C1.02 10 -0.96 10 -3 10 C-2.69201674 8.51988629 -2.378482 7.04092675 -2.0625 5.5625 C-1.88847656 4.73878906 -1.71445313 3.91507813 -1.53515625 3.06640625 C-1 1 -1 1 0 0 Z " fill="#D1EDF8" transform="translate(228,210)"/>
<path d="M0 0 C1.34394941 0.28755674 2.67570589 0.63239422 4 1 C6.08234592 1.06743348 8.16668557 1.08514472 10.25 1.0625 C11.86648438 1.04896484 11.86648438 1.04896484 13.515625 1.03515625 C14.74539063 1.01775391 14.74539063 1.01775391 16 1 C15.67 1.99 15.34 2.98 15 4 C9.39981251 5.86672916 3.25208305 4.54133051 -2 2 C-1.34 1.34 -0.68 0.68 0 0 Z " fill="#DDF1F9" transform="translate(264,183)"/>
<path d="M0 0 C0.99 0 1.98 0 3 0 C2.25 7.625 2.25 7.625 0 11 C-0.99 11 -1.98 11 -3 11 C-3 9.02 -3 7.04 -3 5 C-1.35 4.67 0.3 4.34 2 4 C2 3.34 2 2.68 2 2 C1.34 2 0.68 2 0 2 C0 1.34 0 0.68 0 0 Z " fill="#DEF2FA" transform="translate(265,147)"/>
<path d="M0 0 C0.33 0.99 0.66 1.98 1 3 C1.66 2.67 2.32 2.34 3 2 C5.09350689 5.4019487 5.17942163 8.05272412 5 12 C4.34 12 3.68 12 3 12 C2.731875 11.401875 2.46375 10.80375 2.1875 10.1875 C1.1305255 7.94489213 1.1305255 7.94489213 -0.6875 6.5 C-1.120625 6.005 -1.55375 5.51 -2 5 C-1.74853421 2.86254078 -1.54074221 1.54074221 0 0 Z " fill="#D3EEF8" transform="translate(263,134)"/>
<path d="M0 0 C11.70615034 1.55808656 11.70615034 1.55808656 16 6 C13.75 6.6875 13.75 6.6875 11 7 C9.65009646 6.02248365 8.31963709 5.01800576 7 4 C4.35411911 3.15372596 1.72053338 2.5894489 -1 2 C-0.67 1.34 -0.34 0.68 0 0 Z " fill="#49B9E4" transform="translate(251,126)"/>
<path d="M0 0 C0.33 0 0.66 0 1 0 C0.88557539 1.60495567 0.75805306 3.20898119 0.625 4.8125 C0.55539062 5.70582031 0.48578125 6.59914062 0.4140625 7.51953125 C0 10 0 10 -2 13 C-2.99 13 -3.98 13 -5 13 C-4.54803755 11.39402675 -4.08817673 9.79027492 -3.625 8.1875 C-3.36976563 7.29417969 -3.11453125 6.40085938 -2.8515625 5.48046875 C-2 3 -2 3 0 0 Z " fill="#2BADE0" transform="translate(282,163)"/>
<path d="M0 0 C7 8.44827586 7 8.44827586 7 12 C5.68 12.33 4.36 12.66 3 13 C-0.42857143 4.57142857 -0.42857143 4.57142857 0 0 Z " fill="#35B1E1" transform="translate(286,142)"/>
<path d="M0 0 C7 8.44827586 7 8.44827586 7 12 C7.66 12.33 8.32 12.66 9 13 C8.34 13 7.68 13 7 13 C7 13.66 7 14.32 7 15 C5 14 5 14 4.1875 11.9375 C2.58962626 7.98486495 0.31786288 4.56526237 -2 1 C-1.34 0.67 -0.68 0.34 0 0 Z " fill="#F7E8DB" transform="translate(212,330)"/>
<path d="M0 0 C2 1 2 1 2.6328125 2.84765625 C2.79523438 3.57855469 2.95765625 4.30945313 3.125 5.0625 C3.29257812 5.79597656 3.46015625 6.52945313 3.6328125 7.28515625 C3.75398438 7.85105469 3.87515625 8.41695312 4 9 C2.02 9 0.04 9 -2 9 C-1.125 2.25 -1.125 2.25 0 0 Z " fill="#D9F0F9" transform="translate(300,211)"/>
<path d="M0 0 C2.12508244 3.18762365 2.5020163 5.26512223 3 9 C1.02 9 -0.96 9 -3 9 C-2.01 6.03 -1.02 3.06 0 0 Z " fill="#D3EEF8" transform="translate(357,371)"/>
<path d="M0 0 C0.66 0.99 1.32 1.98 2 3 C-3.445 6.96 -3.445 6.96 -9 11 C-9.99 10.34 -10.98 9.68 -12 9 C-11.13375 8.443125 -10.2675 7.88625 -9.375 7.3125 C-6.04054927 5.09747202 -3.03794244 2.60395067 0 0 Z " fill="#F9ECDA" transform="translate(186,325)"/>
<path d="M0 0 C0 0.66 0 1.32 0 2 C-5.37180176 4.62875405 -10.04492601 5.6083965 -16 6 C-16.33 5.34 -16.66 4.68 -17 4 C-14.5424552 3.33030409 -12.08405076 2.6641232 -9.625 2 C-8.57699219 1.71382812 -8.57699219 1.71382812 -7.5078125 1.421875 C-2.2265625 0 -2.2265625 0 0 0 Z " fill="#DDF2FA" transform="translate(238,182)"/>
<path d="M0 0 C-3.27301919 2.96909598 -5.38065762 3.34354794 -9.75 3.1875 C-11.22726562 3.14689453 -11.22726562 3.14689453 -12.734375 3.10546875 C-13.85585938 3.05326172 -13.85585938 3.05326172 -15 3 C-14.67 2.34 -14.34 1.68 -14 1 C-11.85546875 0.33203125 -11.85546875 0.33203125 -9.1875 -0.1875 C-8.31480469 -0.36667969 -7.44210937 -0.54585937 -6.54296875 -0.73046875 C-4.02642222 -0.99719949 -2.38332645 -0.78333107 0 0 Z " fill="#16A5DD" transform="translate(285,181)"/>
<path d="M0 0 C2 3 2 3 2 5 C2.99 5 3.98 5 5 5 C5 5.99 5 6.98 5 8 C6.32 8.33 7.64 8.66 9 9 C8.67 9.99 8.34 10.98 8 12 C8 11.34 8 10.68 8 10 C5.64632287 9.3121764 5.64632287 9.3121764 3 9 C2.01 9.66 1.02 10.32 0 11 C0 8 0 8 1 6 C0.10636395 3.39068734 0.10636395 3.39068734 -1 1 C-0.67 0.67 -0.34 0.34 0 0 Z " fill="#33B0E1" transform="translate(237,149)"/>
<path d="M0 0 C2.50356732 3.75535098 1.9608592 4.86889414 1.125 9.1875 C0.92132813 10.27417969 0.71765625 11.36085938 0.5078125 12.48046875 C0.34023437 13.31191406 0.17265625 14.14335937 0 15 C-1.65 15 -3.3 15 -5 15 C-4.01 14.67 -3.02 14.34 -2 14 C-1.93941406 13.40832031 -1.87882813 12.81664062 -1.81640625 12.20703125 C-1.37987629 8.09021792 -0.91328654 4.04455467 0 0 Z " fill="#F9D4DD" transform="translate(197,333)"/>
<path d="M0 0 C-0.33 0.66 -0.66 1.32 -1 2 C-3.87109375 2.703125 -3.87109375 2.703125 -7.4375 3.25 C-8.61183594 3.44078125 -9.78617188 3.6315625 -10.99609375 3.828125 C-12.48302734 3.91320312 -12.48302734 3.91320312 -14 4 C-14.66 3.34 -15.32 2.68 -16 2 C-5.62642369 -1.62870159 -5.62642369 -1.62870159 0 0 Z " fill="#E7E6D7" transform="translate(185,321)"/>
<path d="M0 0 C0.33 0.99 0.66 1.98 1 3 C-0.26831693 3.81642254 -1.53975931 4.62799105 -2.8125 5.4375 C-3.87404297 6.11619141 -3.87404297 6.11619141 -4.95703125 6.80859375 C-7 8 -7 8 -10 9 C-9.67 6.69 -9.34 4.38 -9 2 C-7.68 2.66 -6.36 3.32 -5 4 C-3.35 2.68 -1.7 1.36 0 0 Z " fill="#D7EFF9" transform="translate(291,166)"/>
<path d="M0 0 C2.76223278 2.76223278 2.57856291 5.20706617 3 9 C1.35 9 -0.3 9 -2 9 C-1.125 2.25 -1.125 2.25 0 0 Z " fill="#DAF0F9" transform="translate(226,371)"/>
<path d="M0 0 C5.08938811 1.59043379 8.87456643 4.7446951 13 8 C12.67 8.66 12.34 9.32 12 10 C9.00745382 8.59808647 6.4045389 6.96632511 3.75 5 C3.04359375 4.484375 2.3371875 3.96875 1.609375 3.4375 C0.81273437 2.7259375 0.81273437 2.7259375 0 2 C0 1.34 0 0.68 0 0 Z " fill="#35B1E1" transform="translate(249,183)"/>
<path d="M0 0 C0.33 0 0.66 0 1 0 C1 2.64 1 5.28 1 8 C0.67 7.01 0.34 6.02 0 5 C-3.96 5 -7.92 5 -12 5 C-12.33 5.66 -12.66 6.32 -13 7 C-13 6.34 -13 5.68 -13 5 C-14.32 5 -15.64 5 -17 5 C-16.67 4.01 -16.34 3.02 -16 2 C-16 2.66 -16 3.32 -16 4 C-15.01 4 -14.02 4 -13 4 C-12.67 3.34 -12.34 2.68 -12 2 C-12 2.66 -12 3.32 -12 4 C-8.04 4 -4.08 4 0 4 C0 2.68 0 1.36 0 0 Z " fill="#18A6DD" transform="translate(282,142)"/>
<path d="M0 0 C0 1.65 0 3.3 0 5 C-1.65 5.33 -3.3 5.66 -5 6 C-5.66 4.68 -6.32 3.36 -7 2 C-4.35261084 0.5393715 -3.10551666 0 0 0 Z " fill="#E8F6FB" transform="translate(249,134)"/>
<path d="M0 0 C4.42117715 1.35091524 6.443343 3.1650145 9 7 C9.3725191 8.32292041 9.7139834 9.65572198 10 11 C5.86062408 7.69984002 2.41337795 4.82675589 0 0 Z " fill="#1FA9DE" transform="translate(276,116)"/>
<path d="M0 0 C2 3 2 3 1.609375 5.15625 C1.32578125 5.9296875 1.0421875 6.703125 0.75 7.5 C0.34007812 8.66015625 0.34007812 8.66015625 -0.078125 9.84375 C-1 12 -1 12 -3 15 C-4.43410153 11.21180727 -3.51009497 8.93478721 -2.0625 5.25 C-1.49208984 3.77273438 -1.49208984 3.77273438 -0.91015625 2.265625 C-0.60980469 1.51796875 -0.30945313 0.7703125 0 0 Z " fill="#F8DED3" transform="translate(212,284)"/>
<path d="M0 0 C4.75 0.875 4.75 0.875 7 2 C6.34 3.32 5.68 4.64 5 6 C3.35 5.67 1.7 5.34 0 5 C0 3.35 0 1.7 0 0 Z " fill="#DEF2F9" transform="translate(250,134)"/>
<path d="M0 0 C0.33 0 0.66 0 1 0 C1 3.3 1 6.6 1 10 C0.34 10 -0.32 10 -1 10 C-1.33 11.32 -1.66 12.64 -2 14 C-2.05410687 12.22950311 -2.09284119 10.45853151 -2.125 8.6875 C-2.14820313 7.70136719 -2.17140625 6.71523437 -2.1953125 5.69921875 C-2 3 -2 3 0 0 Z " fill="#3CB4E2" transform="translate(206,128)"/>
<path d="M0 0 C1.65 0 3.3 0 5 0 C5.66 1.98 6.32 3.96 7 6 C4.69 5.67 2.38 5.34 0 5 C0 3.35 0 1.7 0 0 Z " fill="#BEE6F5" transform="translate(250,167)"/>
<path d="M0 0 C0.75 1.5625 0.75 1.5625 1 4 C-0.13084437 6.50286409 -1.52139516 8.67007722 -3 11 C-3.99 10.67 -4.98 10.34 -6 10 C-6 8.02 -6 6.04 -6 4 C-5.01 5.485 -5.01 5.485 -4 7 C-2.68 4.69 -1.36 2.38 0 0 Z " fill="#DAF0F9" transform="translate(211,140)"/>
<path d="M0 0 C0.33 0 0.66 0 1 0 C1.33820166 1.5823006 1.67035939 3.16589375 2 4.75 C2.185625 5.63171875 2.37125 6.5134375 2.5625 7.421875 C3 10 3 10 3 14 C3.66 14.33 4.32 14.66 5 15 C3.68 15 2.36 15 1 15 C0.63536268 13.25215171 0.2836922 11.50159498 -0.0625 9.75 C-0.25972656 8.77546875 -0.45695313 7.8009375 -0.66015625 6.796875 C-0.98397535 4.131881 -0.85503199 2.51128277 0 0 Z " fill="#F1D7DB" transform="translate(206,333)"/>
<path d="M0 0 C1.65 0 3.3 0 5 0 C4.47731534 2.76276177 3.89130413 5.3260876 3 8 C2.34 8 1.68 8 1 8 C0.67 5.36 0.34 2.72 0 0 Z " fill="#E1F3FA" transform="translate(224,147)"/>
<path d="M0 0 C0.66 0.33 1.32 0.66 2 1 C-0.64 3.97 -3.28 6.94 -6 10 C-6.33 9.01 -6.66 8.02 -7 7 C-2.88888889 1.44444444 -2.88888889 1.44444444 0 0 Z " fill="#15A5DD" transform="translate(221,116)"/>
<path d="M0 0 C0.92232422 0.32484375 0.92232422 0.32484375 1.86328125 0.65625 C3.07564453 1.07390625 3.07564453 1.07390625 4.3125 1.5 C5.11300781 1.7784375 5.91351563 2.056875 6.73828125 2.34375 C9.08769422 3.13933107 9.08769422 3.13933107 12 3 C12 3.99 12 4.98 12 6 C7.6822542 5.49202991 3.96697886 4.80317221 0 3 C0 2.01 0 1.02 0 0 Z " fill="#3BB3E2" transform="translate(237,161)"/>
<path d="M0 0 C0.99 0 1.98 0 3 0 C3.66 3.3 4.32 6.6 5 10 C2 8.1875 2 8.1875 -1 6 C-1 5.01 -1 4.02 -1 3 C0.485 3.99 0.485 3.99 2 5 C1.34 3.35 0.68 1.7 0 0 Z " fill="#CEECF7" transform="translate(283,120)"/>
<path d="M0 0 C5.94 2.475 5.94 2.475 12 5 C11.67 5.66 11.34 6.32 11 7 C6.52761347 5.58192622 2.28853694 3.88695626 -2 2 C-1.34 1.34 -0.68 0.68 0 0 Z " fill="#E0F2EE" transform="translate(173,300)"/>
<path d="M0 0 C3.26008643 3.16952847 6.22237877 6.39937989 9 10 C8.34 10.66 7.68 11.32 7 12 C5.82455195 10.56967163 4.65989738 9.13046758 3.5 7.6875 C2.8503125 6.88699219 2.200625 6.08648437 1.53125 5.26171875 C0 3 0 3 0 0 Z " fill="#DCEDE4" transform="translate(181,291)"/>
<path d="M0 0 C1.93816735 0.1141866 3.87555099 0.24173423 5.8125 0.375 C6.89144531 0.44460938 7.97039062 0.51421875 9.08203125 0.5859375 C12 1 12 1 15 3 C11.02840314 4.08056059 8.57446843 3.85815614 4.6875 2.5625 C3.36298828 2.13130859 3.36298828 2.13130859 2.01171875 1.69140625 C1.34785156 1.46324219 0.68398437 1.23507812 0 1 C0 0.67 0 0.34 0 0 Z " fill="#D5E9EF" transform="translate(219,321)"/>
<path d="M0 0 C1.9375 0.375 1.9375 0.375 4 1 C4.33 1.66 4.66 2.32 5 3 C4.67 3.66 4.34 4.32 4 5 C1.03 4.505 1.03 4.505 -2 4 C-1.34 2.68 -0.68 1.36 0 0 Z " fill="#EEF8FC" transform="translate(244,153)"/>
<path d="M0 0 C0.66 0.99 1.32 1.98 2 3 C-0.97 4.32 -3.94 5.64 -7 7 C-7.66 6.34 -8.32 5.68 -9 5 C-6.03 3.35 -3.06 1.7 0 0 Z " fill="#E0E3D4" transform="translate(230,299)"/>
<path d="M0 0 C0.33 0.99 0.66 1.98 1 3 C-0.43359375 5.04296875 -0.43359375 5.04296875 -2.4375 7.1875 C-3.09621094 7.90292969 -3.75492188 8.61835938 -4.43359375 9.35546875 C-4.95050781 9.89816406 -5.46742188 10.44085938 -6 11 C-6.66 10.34 -7.32 9.68 -8 9 C-5.36 6.03 -2.72 3.06 0 0 Z " fill="#F2F1E0" transform="translate(222,291)"/>
<path d="M0 0 C1.485 0.99 1.485 0.99 3 2 C3 2.66 3 3.32 3 4 C3.66 4 4.32 4 5 4 C5.125 6.875 5.125 6.875 5 10 C4.34 10.66 3.68 11.32 3 12 C1.82923301 8.01939223 0.74250597 4.08378283 0 0 Z " fill="#3AB3E2" transform="translate(265,134)"/>
<path d="M0 0 C0.33 0 0.66 0 1 0 C1.24979445 1.91408757 1.47408014 3.83151611 1.6875 5.75 C1.87892578 7.35101563 1.87892578 7.35101563 2.07421875 8.984375 C2 12 2 12 -1 16 C-0.67 10.72 -0.34 5.44 0 0 Z " fill="#B9E4F4" transform="translate(208,126)"/>
<path d="M0 0 C1.65 0 3.3 0 5 0 C5.33 1.65 5.66 3.3 6 5 C4.68 5.33 3.36 5.66 2 6 C0 3 0 3 0 0 Z " fill="#BBE5F5" transform="translate(231,147)"/>
<path d="M0 0 C0.66 0 1.32 0 2 0 C0.6302836 3.99500618 -1.25722422 6.80009492 -4 10 C-4.33 9.34 -4.66 8.68 -5 8 C-4.07421875 6.0546875 -4.07421875 6.0546875 -2.6875 3.875 C-2.23761719 3.15054687 -1.78773438 2.42609375 -1.32421875 1.6796875 C-0.88722656 1.12539063 -0.45023438 0.57109375 0 0 Z " fill="#FCE7E3" transform="translate(190,332)"/>
<path d="M0 0 C-4.455 2.97 -4.455 2.97 -9 6 C-9.33 5.01 -9.66 4.02 -10 3 C-4.5 -1.125 -4.5 -1.125 0 0 Z " fill="#D8EFF9" transform="translate(247,185)"/>
<path d="M0 0 C2 1 2 1 4 3 C4.99 3.66 5.98 4.32 7 5 C5.37536158 5.05395478 3.75021459 5.09277195 2.125 5.125 C1.22007812 5.14820313 0.31515625 5.17140625 -0.6171875 5.1953125 C-3 5 -3 5 -5 3 C-3.68 3 -2.36 3 -1 3 C-0.67 2.01 -0.34 1.02 0 0 Z " fill="#8CD3EE" transform="translate(255,154)"/>
<path d="M0 0 C0.66 0.66 1.32 1.32 2 2 C0.8803014 3.00593243 -0.2459412 4.0045849 -1.375 5 C-2.00148437 5.556875 -2.62796875 6.11375 -3.2734375 6.6875 C-5 8 -5 8 -7 8 C-5.50902342 4.2047869 -3.24299151 2.38957269 0 0 Z " fill="#2AADE0" transform="translate(245,185)"/>
<path d="M0 0 C2.89932357 2.39509338 3.50168276 4.31245243 4 8 C3.01 8 2.02 8 1 8 C-0.35439668 5.29120665 -0.06501451 2.99066732 0 0 Z " fill="#2CAEE0" transform="translate(216,163)"/>
<path d="M0 0 C0 0.99 0 1.98 0 3 C0.99 3.66 1.98 4.32 3 5 C1.68 5 0.36 5 -1 5 C-1 5.66 -1 6.32 -1 7 C-2.32 6.67 -3.64 6.34 -5 6 C-4.34 6 -3.68 6 -3 6 C-3.33 4.35 -3.66 2.7 -4 1 C-2.68 0.67 -1.36 0.34 0 0 Z " fill="#5CC0E7" transform="translate(251,152)"/>
<path d="M0 0 C0.33 0 0.66 0 1 0 C1.36923077 7.38461538 1.36923077 7.38461538 -0.5 10.5 C-0.995 10.995 -1.49 11.49 -2 12 C-3.40907283 9.18185434 -2.50872691 7.82722796 -1.5625 4.875 C-1.27503906 3.96492187 -0.98757813 3.05484375 -0.69140625 2.1171875 C-0.46324219 1.41851562 -0.23507812 0.71984375 0 0 Z " fill="#44B7E3" transform="translate(275,147)"/>
<path d="M0 0 C2 1.625 2 1.625 4 4 C4.25 7.25 4.25 7.25 4 10 C3.34 9.67 2.68 9.34 2 9 C1.3671875 6.93359375 1.3671875 6.93359375 0.875 4.4375 C0.70742188 3.61121094 0.53984375 2.78492187 0.3671875 1.93359375 C0.24601562 1.29550781 0.12484375 0.65742187 0 0 Z " fill="#17A6DD" transform="translate(286,121)"/>
<path d="M0 0 C0.33 0 0.66 0 1 0 C0.67 3.3 0.34 6.6 0 10 C-0.99 9.01 -1.98 8.02 -3 7 C-3 6.34 -3 5.68 -3 5 C-2.34 5 -1.68 5 -1 5 C-0.67 3.35 -0.34 1.7 0 0 Z " fill="#0CA1DB" transform="translate(209,150)"/>
<path d="M0 0 C1.98 0 3.96 0 6 0 C5.01 0.495 5.01 0.495 4 1 C4 1.66 4 2.32 4 3 C1.03 3 -1.94 3 -5 3 C-5 2.67 -5 2.34 -5 2 C-3.35 1.67 -1.7 1.34 0 1 C0 0.67 0 0.34 0 0 Z " fill="#D7EFF9" transform="translate(246,180)"/>
<path d="M0 0 C2.97 0.33 5.94 0.66 9 1 C8.34 1.66 7.68 2.32 7 3 C4.27130593 2.96712417 1.7033382 2.43602229 -1 2 C-0.67 1.34 -0.34 0.68 0 0 Z " fill="#52BCE5" transform="translate(240,177)"/>
<path d="M0 0 C1.32 0.33 2.64 0.66 4 1 C3.01 1 2.02 1 1 1 C1 1.66 1 2.32 1 3 C2.65 3 4.3 3 6 3 C5.01 3.33 4.02 3.66 3 4 C3 4.66 3 5.32 3 6 C2.01 6 1.02 6 0 6 C0 4.02 0 2.04 0 0 Z " fill="#84CFED" transform="translate(250,114)"/>
<path d="M0 0 C0.33 0.99 0.66 1.98 1 3 C-0.9375 6.1875 -0.9375 6.1875 -3 9 C-3.66 8.34 -4.32 7.68 -5 7 C-3.35 4.69 -1.7 2.38 0 0 Z " fill="#40B5E3" transform="translate(279,159)"/>
<path d="M0 0 C5.75 0.75 5.75 0.75 8 3 C6.35 3.33 4.7 3.66 3 4 C2.01 2.68 1.02 1.36 0 0 Z " fill="#2DAEE0" transform="translate(259,129)"/>
</svg>